<svg width="665" height="395" viewBox="0 0 665 395" fill="none" xmlns="http://www.w3.org/2000/svg">
<path d="M600.329 352.501C597.106 348.473 594.689 343.923 592.651 339.23C591.655 336.908 590.707 334.491 589.807 332.121C589.38 330.983 588.906 329.893 588.575 328.756C588.195 327.571 588.053 326.955 588.622 325.817C588.622 325.012 588.954 324.68 589.57 324.775C590.091 324.632 590.423 324.869 590.613 325.486C591.087 325.438 591.56 325.343 591.987 325.296C589.143 316.717 587.295 307.854 586.489 298.896C586.11 294.536 585.968 290.128 586.063 285.72C586.11 283.682 586.205 281.644 586.394 279.559C586.442 278.753 586.347 276.478 586.821 275.814C587.342 275.672 587.816 275.53 588.338 275.435C589.191 274.724 589.854 274.724 590.281 275.482C590.802 275.909 591.134 276.667 591.466 277.236C600.139 291.645 605.922 307.902 608.718 324.443C610.329 333.969 610.946 343.591 610.519 353.26C610.472 354.16 611.893 354.16 611.941 353.26C612.699 334.064 609.524 314.774 602.556 296.858C600.803 292.403 598.859 288.042 596.679 283.777C595.684 281.786 594.594 279.843 593.504 277.947C592.603 276.383 591.703 274.487 590.186 273.444C587.247 271.454 585.541 274.298 585.209 276.904C584.593 281.834 584.498 286.858 584.641 291.834C584.972 303.351 586.963 314.727 590.565 325.628C590.802 326.386 591.987 326.291 591.94 325.438C591.94 323.542 589.807 322.737 588.195 323.542C585.352 324.917 586.963 328.851 587.721 330.936C590.66 338.899 593.835 346.766 599.191 353.449C599.902 354.255 600.898 353.212 600.329 352.501Z" fill="white"/>
<path d="M608.671 317.049C609.05 310.745 609.856 304.489 611.23 298.28C611.894 295.389 612.605 292.498 613.505 289.654C613.932 288.232 614.406 286.81 614.88 285.436C615.117 284.725 615.354 284.014 615.638 283.35C615.733 283.066 615.828 282.782 615.97 282.497C616.159 281.502 616.823 280.933 617.913 280.743C617.818 281.549 619.098 281.691 619.288 280.933C620.235 277.805 627.914 257.662 632.606 261.121C633.98 262.117 634.36 264.439 634.597 266.003C634.976 268.183 635.307 270.411 635.544 272.591C635.971 276.336 636.255 280.08 636.35 283.872C636.777 299.275 634.454 314.774 629.525 329.419C626.681 337.809 622.984 345.819 618.529 353.449C618.055 354.255 619.288 354.966 619.762 354.16C628.719 338.899 634.454 321.931 636.729 304.442C637.867 295.626 638.151 286.715 637.488 277.852C637.156 273.634 636.682 269.416 635.924 265.245C635.497 262.97 634.454 259.605 631.753 259.178C628.198 258.609 625.449 264.487 624.027 266.856C621.42 271.169 619.43 275.767 617.96 280.554C618.434 280.601 618.908 280.696 619.335 280.743C619.619 278.468 616.776 278.326 615.638 279.796C614.785 280.886 614.406 282.497 613.979 283.777C613.173 286.004 612.462 288.28 611.799 290.555C609.287 299.181 607.818 308.044 607.296 317.002C607.201 317.95 608.623 317.95 608.671 317.049Z" fill="white"/>
<path d="M586.394 275.293C596.727 299.418 603.22 325.059 605.59 351.175C605.685 352.075 607.107 352.075 607.012 351.175C604.595 324.775 598.054 298.944 587.627 274.535C587.247 273.729 586.015 274.487 586.394 275.293Z" fill="white"/>
<path d="M586.11 306.527C591.039 308.992 595.589 312.072 599.713 315.675C600.376 316.291 601.419 315.295 600.708 314.679C596.442 310.982 591.845 307.854 586.774 305.295C586.015 304.916 585.257 306.148 586.11 306.527Z" fill="white"/>
<path d="M599.286 292.64C597.959 295.247 596.964 297.996 596.347 300.887C596.158 301.787 597.532 302.166 597.722 301.266C598.338 298.517 599.239 295.863 600.518 293.351C600.945 292.545 599.713 291.834 599.286 292.64Z" fill="white"/>
<path d="M630.283 262.212C627.203 289.749 623.838 318.187 610.424 342.927C609.998 343.733 611.23 344.444 611.657 343.638C625.212 318.661 628.577 290.033 631.705 262.212C631.8 261.311 630.378 261.311 630.283 262.212Z" fill="white"/>
<path d="M612.557 289.18C616.349 298.091 619.145 307.333 620.993 316.812C621.183 317.713 622.558 317.333 622.368 316.433C620.472 306.811 617.581 297.474 613.789 288.469C613.41 287.616 612.225 288.327 612.557 289.18Z" fill="white"/>
<path d="M626.824 296.337C630.378 291.834 633.933 287.332 637.488 282.876C638.057 282.165 637.061 281.17 636.492 281.881C632.938 286.384 629.383 290.886 625.828 295.342C625.26 296.005 626.255 297.048 626.824 296.337Z" fill="white"/>
<path d="M37.83 346.198C34.7492 342.88 31.6211 339.468 29.1091 335.676C27.9242 333.827 26.8341 331.932 25.9809 329.894C25.507 328.756 23.2793 322.689 26.3601 323.922C27.1184 324.206 27.4502 323.211 27.071 322.737C23.9429 318.755 21.8575 314.111 20.0564 309.418C18.3501 304.963 16.6913 300.46 15.1272 295.958C13.4209 291.029 11.9516 285.957 11.3829 280.791C10.9563 276.715 10.5297 271.122 13.4683 267.757C17.7814 262.875 22.1418 270.933 24.1799 273.966C26.9289 278.042 29.6304 282.213 32.2372 286.384C37.4034 294.868 42.0957 303.683 45.5556 313.068C49.4895 323.779 51.6697 335.107 51.1484 346.53C51.101 347.43 52.5229 347.43 52.5702 346.53C53.613 323.4 43.7071 301.835 31.6211 282.687C28.6351 277.995 25.6492 273.255 22.3788 268.752C20.5304 266.24 17.5918 263.634 14.274 265.292C11.2407 266.762 10.1032 270.696 9.8188 273.776C9.29744 279.369 10.3876 285.057 11.9042 290.412C13.6105 296.479 15.9329 302.356 18.1131 308.233C20.1512 313.731 22.4262 319.087 26.0757 323.732C26.3127 323.353 26.5497 322.926 26.7867 322.547C25.5544 322.073 24.4643 322.215 23.4215 322.974C23.2319 323.116 23.0424 323.353 23.0898 323.59C24.1325 333.164 30.6258 340.51 36.8821 347.241C37.4508 347.904 38.4462 346.909 37.83 346.198Z" fill="white"/>
<path d="M41.7163 301.124C40.247 287.853 42.0007 274.535 46.8351 262.069C46.456 262.164 46.0294 262.259 45.6502 262.401C47.1195 263.728 48.1148 265.245 48.6836 267.141C48.8732 267.804 49.8685 267.852 50.0581 267.141C53.281 255.955 57.9733 245.291 64.1348 235.385C63.7082 235.338 63.2816 235.29 62.8551 235.196C66.552 244.627 68.8744 254.581 69.6327 264.724C70.2963 273.824 70.5333 284.298 64.9879 292.024C64.7035 292.403 64.9879 292.972 65.4145 293.066C69.6801 294.062 68.4004 300.792 68.0213 303.825C67.4525 308.849 66.5994 313.873 65.5093 318.803C63.4238 328.329 60.3905 337.666 56.5514 346.624C56.1722 347.477 57.4045 348.188 57.7837 347.335C62.2863 336.908 65.6515 326.007 67.7843 314.869C68.7322 309.75 69.8223 304.347 69.9171 299.133C69.9645 296.147 69.2062 292.403 65.841 291.645C65.9832 291.976 66.1254 292.356 66.2676 292.687C71.813 284.962 71.7182 274.629 71.1494 265.529C70.4859 254.96 68.1161 244.58 64.277 234.769C64.04 234.2 63.329 234.058 62.9973 234.579C56.7883 244.58 52.0487 255.339 48.7784 266.667C49.2523 266.667 49.6789 266.667 50.1529 266.667C49.4893 264.534 48.3992 262.828 46.7403 261.311C46.3138 260.932 45.745 261.121 45.5554 261.643C40.6736 274.203 38.92 287.711 40.3892 301.076C40.3892 302.024 41.8111 302.024 41.7163 301.124Z" fill="white"/>
<path d="M13.9892 267.52C20.5773 280.554 27.3076 293.541 33.6113 306.717C39.7728 319.703 45.2234 333.116 48.1619 347.241C48.3515 348.141 49.726 347.762 49.5364 346.861C46.5979 332.879 41.2895 319.656 35.1754 306.764C28.8243 293.304 21.9044 280.08 15.1741 266.762C14.795 266.003 13.5627 266.714 13.9892 267.52Z" fill="white"/>
<path d="M63.1394 237.186C62.1441 251.263 57.7836 264.724 54.5607 278.374C51.3378 292.024 49.1101 305.911 47.8778 319.893C47.783 320.793 49.2049 320.793 49.2997 319.893C50.5794 305.437 52.9492 291.076 56.3618 276.999C59.5847 263.823 63.566 250.789 64.5613 237.186C64.6087 236.238 63.1868 236.238 63.1394 237.186Z" fill="white"/>
<path d="M13.231 294.678C20.3878 297.095 26.9285 300.792 32.7582 305.626C33.4692 306.195 34.4645 305.2 33.7536 304.631C27.7342 299.655 21.004 295.863 13.6102 293.303C12.7096 292.972 12.3305 294.346 13.231 294.678Z" fill="white"/>
<path d="M45.2235 263.207C46.835 271.786 49.2048 280.222 52.2856 288.374C52.6173 289.227 53.9918 288.848 53.6601 287.995C50.5793 279.796 48.2569 271.406 46.598 262.828C46.4084 261.927 45.0813 262.306 45.2235 263.207Z" fill="white"/>
<path d="M50.3424 323.021C55.4612 316.291 60.7222 309.513 68.2108 305.295C69.0165 304.868 68.3056 303.636 67.4999 304.063C59.8217 308.423 54.3711 315.39 49.1101 322.31C48.5887 323.021 49.821 323.732 50.3424 323.021Z" fill="white"/>
<path d="M543.264 355.061C583.124 355.061 623.032 355.061 662.892 355.061C664.74 355.061 664.74 352.217 662.892 352.217C623.032 352.217 583.124 352.217 543.264 352.217C541.415 352.217 541.415 355.061 543.264 355.061Z" fill="white"/>
<path d="M110.299 345.582C79.0173 345.582 47.7358 345.582 16.4542 345.582C14.6058 345.582 14.6058 348.425 16.4542 348.425C47.7358 348.425 79.0173 348.425 110.299 348.425C112.1 348.425 112.1 345.582 110.299 345.582Z" fill="white"/>
<path d="M428.896 378.19C472.122 378.19 515.347 378.19 558.573 378.19C570.896 378.19 583.171 378.19 595.494 378.19C597.343 378.19 597.343 375.346 595.494 375.346C552.269 375.346 509.044 375.346 465.818 375.346C453.495 375.346 441.219 375.346 428.896 375.346C427.095 375.346 427.048 378.19 428.896 378.19Z" fill="white"/>
<path d="M531.225 355.819C393.302 353.07 255.379 350.321 117.456 347.572C92.7623 347.098 75.5101 322.974 82.9987 299.465L168.17 31.4864C173.004 16.2722 187.128 5.84503 203.101 5.75024C330.739 4.84971 458.377 3.90179 586.015 3.00126C609.334 2.81167 627.013 24.0926 622.511 46.985L568.147 325.96C564.782 343.591 549.189 356.198 531.225 355.819Z" fill="#A66DFF" stroke="white" stroke-width="6"/>
<path d="M528.571 353.497C390.648 350.89 252.725 348.33 114.802 345.724C90.108 345.25 72.8558 322.499 80.3444 300.318L165.516 47.364C170.35 33.0029 184.474 23.1919 200.447 23.0497C328.085 22.1966 455.723 21.296 583.361 20.4429C606.68 20.3007 624.359 40.3493 619.856 61.962L565.493 325.343C562.128 341.932 546.534 353.828 528.571 353.497Z" fill="black" stroke="white" stroke-width="6"/>
<path d="M563.929 332.405C559.378 342.406 550.61 349.942 540.041 352.881C539.14 353.118 539.519 354.492 540.42 354.255C551.321 351.222 560.469 343.401 565.161 333.116C565.493 332.311 564.308 331.552 563.929 332.405Z" fill="white"/>
<path d="M206.75 16.2246C205.328 16.0825 204.807 14.5658 205.186 13.3335C205.707 11.7694 207.224 11.4376 208.646 12.1486C209.641 12.6699 210.163 13.9022 209.736 14.9923C209.262 16.1772 207.888 16.5564 206.75 16.1299C205.897 15.7981 205.518 17.1726 206.371 17.5043C208.219 18.2153 210.494 17.2674 211.158 15.3241C211.822 13.2387 210.494 11.2006 208.504 10.5845C206.276 9.92094 204.333 10.9637 203.764 13.2861C203.29 15.4189 204.617 17.4096 206.75 17.6465C207.651 17.7413 207.651 16.3194 206.75 16.2246Z" fill="white"/>
<path d="M205.091 15.0872C205.66 16.5565 207.746 17.0305 208.978 16.13C209.784 15.5138 210.163 14.3289 209.784 13.2862C209.357 12.1487 208.125 11.4851 207.035 11.6747C205.518 11.9591 204.523 13.7128 205.091 15.0872Z" fill="black"/>
<path d="M222.77 15.7984C221.348 15.6562 220.827 14.1395 221.206 12.9072C221.727 11.3431 223.244 11.0113 224.666 11.7223C225.661 12.2437 226.183 13.476 225.756 14.5661C225.282 15.751 223.908 16.1301 222.77 15.7036C221.917 15.3718 221.538 16.7463 222.391 17.0781C224.239 17.789 226.514 16.8411 227.178 14.8978C227.842 12.8124 226.514 10.7744 224.524 10.1582C222.296 9.49467 220.353 10.5374 219.784 12.8598C219.31 14.9926 220.637 16.9833 222.77 17.2203C223.671 17.3151 223.671 15.8932 222.77 15.7984Z" fill="white"/>
<path fill-rule="evenodd" clip-rule="evenodd" d="M221.111 14.661C221.68 16.1303 223.765 16.6042 224.998 15.7037C225.803 15.0875 226.183 13.9026 225.803 12.8599C225.377 11.7224 224.145 11.0589 223.054 11.2484C221.538 11.5328 220.542 13.2865 221.111 14.661Z" stroke="white"/>
<path d="M205.802 12.1486C206.466 13.6179 207.224 15.0398 208.125 16.4143C208.599 17.1726 209.831 16.4617 209.357 15.7034C208.504 14.3289 207.746 12.907 207.035 11.4377C206.655 10.632 205.423 11.3429 205.802 12.1486Z" fill="white"/>
<path d="M205.944 16.4143C206.608 15.8456 207.224 15.2294 207.888 14.6607C208.456 14.1393 209.025 13.5232 209.736 13.144C210.542 12.7174 209.831 11.4851 209.025 11.9117C208.314 12.2909 207.745 12.907 207.129 13.4758C206.418 14.1393 205.66 14.8029 204.949 15.4664C204.286 16.0352 205.281 17.0305 205.944 16.4143Z" fill="white"/>
<path d="M381.974 48.4069C377.756 61.9622 373.49 75.5649 369.272 89.1203C366.665 97.5568 372.874 106.088 381.69 106.23C440.508 106.941 499.28 107.605 558.099 108.316C564.544 108.411 570.09 103.766 571.227 97.4146C573.739 83.0062 576.299 68.5977 578.811 54.1892C580.233 46.1319 574.024 38.738 565.824 38.738C508.712 38.8802 451.599 39.0224 394.534 39.1646C388.799 39.1646 383.68 42.9089 381.974 48.4069Z" fill="black" stroke="#D0F500" stroke-width="3"/>
<path d="M156.273 237.376C148.073 260.932 139.874 284.488 131.674 308.044C126.603 322.642 138.642 337.524 155.704 337.714C269.55 338.899 383.443 340.131 497.289 341.316C509.802 341.458 520.561 333.448 522.694 322.405C527.623 297.427 532.505 272.402 537.434 247.424C540.183 233.395 528.144 220.598 512.266 220.598C401.691 220.835 291.115 221.072 180.54 221.309C169.402 221.356 159.591 227.849 156.273 237.376Z" fill="black" stroke="#D0F500" stroke-width="3"/>
<path d="M399.795 129.597C392.164 152.442 384.534 175.287 376.903 198.132C376.618 198.985 377.993 199.364 378.277 198.511C385.908 175.666 393.539 152.821 401.17 129.976C401.454 129.075 400.08 128.696 399.795 129.597Z" fill="#A66DFF"/>
<path d="M400.696 129.739C420.507 128.696 440.414 127.085 460.273 127.085C480.037 127.085 499.754 128.791 519.423 130.497C520.324 130.592 520.324 129.17 519.423 129.075C499.754 127.369 480.037 125.71 460.273 125.663C440.414 125.663 420.507 127.274 400.696 128.317C399.795 128.364 399.748 129.786 400.696 129.739Z" fill="#A66DFF"/>
<path d="M519.186 130.45C513.878 153.105 508.522 175.713 503.214 198.369C503.024 199.269 504.399 199.648 504.588 198.748C509.897 176.092 515.253 153.484 520.561 130.829C520.751 129.976 519.376 129.597 519.186 130.45Z" fill="#A66DFF"/>
<path d="M377.756 200.596C410.27 198.843 442.831 198.416 475.392 199.411C484.682 199.696 493.924 200.075 503.214 200.596C504.114 200.644 504.114 199.222 503.214 199.174C470.7 197.373 438.139 196.994 405.577 197.99C396.288 198.274 387.045 198.653 377.756 199.174C376.855 199.222 376.808 200.644 377.756 200.596Z" fill="#A66DFF"/>
<path d="M440.888 198.179C461.173 187.61 484.35 186.046 506.769 184.671C507.669 184.624 507.669 183.202 506.769 183.249C484.113 184.671 460.699 186.283 440.177 196.947C439.324 197.373 440.035 198.606 440.888 198.179Z" fill="#A66DFF"/>
<path d="M473.259 153.058C475.487 163.912 476.624 174.955 476.672 186.046C476.672 186.946 478.094 186.946 478.094 186.046C477.999 174.813 476.861 163.675 474.634 152.679C474.444 151.778 473.07 152.157 473.259 153.058Z" fill="#A66DFF"/>
<path d="M472.738 152.821C469.847 157.039 467.003 161.305 464.112 165.523C464.539 165.665 465.013 165.76 465.439 165.902C465.202 161.637 466.292 157.655 468.709 154.148C469.231 153.39 467.999 152.679 467.477 153.437C464.918 157.134 463.733 161.447 463.97 165.902C464.017 166.613 464.87 166.85 465.297 166.282C468.188 162.063 471.032 157.798 473.923 153.579C474.492 152.774 473.26 152.063 472.738 152.821Z" fill="#A66DFF"/>
<path d="M467.951 152.442C466.34 151.731 464.728 151.399 462.974 151.494C461.932 151.541 457.713 152.821 458.33 151.257C458.567 150.641 459.894 149.835 460.415 149.409C461.41 148.603 462.453 147.844 463.543 147.228C465.96 145.854 468.662 145.19 471.411 145.617C472.312 145.759 472.691 144.385 471.79 144.242C466.292 143.389 460.557 146.375 457.003 150.499C456.055 151.589 456.197 153.105 457.761 153.579C458.614 153.816 459.562 153.485 460.368 153.295C462.69 152.774 464.965 152.584 467.24 153.579C468.046 154.053 468.757 152.821 467.951 152.442Z" fill="#A66DFF"/>
<path d="M472.691 144.147C474.492 139.882 478.047 136.753 482.454 135.426C482.217 135.047 481.981 134.621 481.744 134.241C480.132 136.327 479.184 138.602 478.852 141.209C478.758 142.109 480.179 142.109 480.274 141.209C480.559 138.981 481.412 136.99 482.739 135.237C483.118 134.715 482.786 133.815 482.028 134.052C477.099 135.521 473.26 139.029 471.269 143.768C470.985 144.621 472.359 145 472.691 144.147Z" fill="#A66DFF"/>
<path d="M479.895 142.062C483.592 139.929 487.952 139.882 491.697 141.92C491.697 141.493 491.697 141.114 491.697 140.687C488.711 142.109 485.867 143.816 483.165 145.711C482.407 146.233 483.118 147.465 483.876 146.944C486.578 145.048 489.422 143.342 492.408 141.92C492.882 141.683 492.834 140.924 492.408 140.687C488.189 138.365 483.308 138.412 479.184 140.83C478.378 141.304 479.089 142.536 479.895 142.062Z" fill="#A66DFF"/>
<path d="M482.644 147.038C485.725 148.745 488.711 151.541 487.857 155.428C488.284 155.38 488.711 155.333 489.137 155.238C487.146 152.062 483.734 150.261 479.99 150.404C479.089 150.451 479.089 151.873 479.99 151.825C483.26 151.683 486.199 153.2 487.905 155.949C488.189 156.423 489.09 156.423 489.184 155.759C490.132 151.257 487.004 147.797 483.307 145.759C482.549 145.38 481.838 146.612 482.644 147.038Z" fill="#A66DFF"/>
<path d="M478.757 151.589C480.938 162.964 481.743 174.481 481.127 186.046C481.08 186.946 482.502 186.946 482.549 186.046C483.165 174.386 482.36 162.679 480.132 151.209C479.942 150.309 478.568 150.688 478.757 151.589Z" fill="#A66DFF"/>
<path d="M477.193 173.912C478.758 174.102 480.227 173.818 481.649 173.201C482.502 172.822 481.744 171.59 480.938 171.969C479.753 172.538 478.473 172.68 477.193 172.49C476.293 172.348 476.293 173.77 477.193 173.912Z" fill="#A66DFF"/>
<path d="M383.917 181.211C391.69 181.685 399.558 181.827 407.284 182.728C411.075 183.155 414.725 184.292 418.469 184.861C422.119 185.382 425.674 184.861 429.323 184.197C445.296 181.401 461.363 182.918 477.335 184.624C478.236 184.719 478.236 183.297 477.335 183.202C461.884 181.543 446.196 179.932 430.745 182.491C426.384 183.202 422.261 184.055 417.853 183.297C414.298 182.681 410.886 181.733 407.331 181.306C399.606 180.406 391.738 180.263 383.965 179.789C383.017 179.695 383.017 181.117 383.917 181.211Z" fill="#A66DFF"/>
<path d="M475.535 164.101C475.724 164.907 476.53 165.097 477.288 164.954C478.757 164.717 480.274 164.196 481.696 163.77C482.597 163.533 482.217 162.158 481.317 162.395C480.464 162.632 479.611 162.869 478.757 163.059C478.378 163.153 477.952 163.248 477.573 163.39C477.383 163.438 477.193 163.485 477.004 163.533C476.672 163.485 476.672 163.533 476.909 163.675C476.719 162.822 475.345 163.201 475.535 164.101Z" fill="#A66DFF"/>
<path d="M415.483 145.996C410.791 144.479 416.905 136.422 420.176 140.024C421.361 141.304 421.313 143.531 420.223 144.858C418.991 146.375 416.858 146.612 415.199 145.664C414.393 145.19 413.682 146.423 414.488 146.896C416.905 148.271 420.176 147.75 421.692 145.332C423.067 143.105 422.688 139.645 420.27 138.27C415.009 135.332 408.706 145.332 415.152 147.418C416.005 147.655 416.384 146.28 415.483 145.996Z" fill="#A66DFF"/>
<path d="M525.064 134.573C540.373 135.379 555.539 137.18 570.611 140.024C571.512 140.213 571.891 138.839 570.991 138.649C555.824 135.758 540.515 133.91 525.064 133.104C524.163 133.104 524.163 134.526 525.064 134.573Z" fill="#A66DFF"/>
<path d="M524.827 138.697C539.425 140.261 554.07 141.92 568.621 143.674C569.521 143.768 569.521 142.346 568.621 142.252C554.023 140.498 539.425 138.839 524.827 137.275C523.926 137.18 523.926 138.602 524.827 138.697Z" fill="#A66DFF"/>
<path d="M524.353 142.962C533.169 144.432 542.032 145.38 550.942 145.664C551.843 145.711 551.843 144.29 550.942 144.242C542.174 143.91 533.405 143.057 524.732 141.588C523.831 141.446 523.452 142.82 524.353 142.962Z" fill="#A66DFF"/>
<path d="M519.044 168.509C531.036 170.216 543.074 171.637 555.113 172.775C556.014 172.87 556.014 171.448 555.113 171.353C543.169 170.216 531.273 168.794 519.424 167.135C518.523 166.993 518.144 168.367 519.044 168.509Z" fill="#A66DFF"/>
<path d="M518.144 172.585C527.67 174.244 537.197 175.618 546.771 176.756C547.671 176.851 547.671 175.429 546.771 175.334C537.292 174.244 527.907 172.869 518.523 171.211C517.622 171.021 517.243 172.395 518.144 172.585Z" fill="#A66DFF"/>
<path d="M517.148 178.604C529.092 180.974 541.131 182.586 553.264 183.344C554.165 183.391 554.165 181.969 553.264 181.922C541.273 181.116 529.329 179.552 517.527 177.23C516.627 177.04 516.248 178.415 517.148 178.604Z" fill="#A66DFF"/>
<path d="M176.796 239.603C198.598 240.694 220.495 239.556 242.298 239.224C264.1 238.892 285.855 238.798 307.657 238.845C351.404 238.94 395.103 239.746 438.85 240.741C463.496 241.31 488.095 241.973 512.741 242.589C513.641 242.637 513.641 241.215 512.741 241.168C469.041 240.03 425.295 238.845 381.548 238.134C337.801 237.423 294.102 237.091 250.355 237.66C225.851 237.945 201.252 239.414 176.796 238.134C175.848 238.134 175.848 239.556 176.796 239.603Z" fill="#D0F500"/>
<path d="M175.943 72.6737C178.786 73.1003 180.777 71.1571 186.417 66.9862C194.901 60.6825 196.702 60.4929 197.982 60.5877C198.598 60.6351 199.736 60.8247 205.091 64.8534C212.912 70.7305 213.386 72.5316 215.945 72.6737C220.59 72.8633 221.254 66.9862 226.799 66.4648C231.823 65.9909 233.387 70.5883 239.596 70.3513C244.383 70.2091 247.179 67.2706 247.606 67.8867C248.127 68.6925 243.625 74.9014 237.131 75.8967C232.344 76.6076 231.302 73.8113 226.657 74.4748C220.211 75.4227 218.979 81.2999 214.239 80.8733C211.443 80.5889 211.063 78.5035 206.229 75.1857C203.67 73.4321 199.214 70.3987 194.332 70.0195C185.375 69.356 180.73 78.0295 175.327 75.5175C172.72 74.3326 171.25 71.1097 171.582 70.7305C171.819 70.3513 173.478 72.2946 175.943 72.6737Z" fill="#A66DFF"/>
<path d="M397.994 48.3594C395.103 61.4882 391.548 74.4748 387.377 87.2717C387.093 88.1249 388.467 88.504 388.752 87.6509C392.923 74.8539 396.477 61.8673 399.369 48.7386C399.558 47.838 398.184 47.4589 397.994 48.3594Z" fill="#D0F500"/>
<path d="M388.231 88.362C393.112 88.9307 397.994 88.6937 402.923 88.599C408.042 88.4568 413.161 88.362 418.327 88.2198C428.565 87.9828 438.85 87.6984 449.087 87.4614C449.988 87.4614 449.988 86.0396 449.087 86.0396C438.85 86.2765 428.565 86.5609 418.327 86.7979C413.351 86.9401 408.374 87.0349 403.397 87.1771C398.326 87.3193 393.302 87.5562 388.231 86.9875C387.33 86.8453 387.33 88.2672 388.231 88.362Z" fill="#D0F500"/>
<path d="M405.862 61.5833C404.061 70.0198 402.544 78.5037 401.264 87.0351C401.122 87.9356 402.497 88.3148 402.639 87.4142C403.919 78.8829 405.435 70.399 407.236 61.9624C407.426 61.0619 406.051 60.6827 405.862 61.5833Z" fill="#D0F500"/>
<path d="M406.952 62.3414C409.464 62.4836 411.929 62.7206 414.393 63.1946C414.251 62.9102 414.062 62.6258 413.919 62.3414C411.692 70.3514 409.796 78.4562 408.232 86.6083C408.042 87.5089 409.417 87.888 409.606 86.9875C411.17 78.8353 413.066 70.7306 415.294 62.7206C415.389 62.3888 415.199 61.9149 414.82 61.8675C412.213 61.3935 409.654 61.1091 407 60.9669C406.004 60.8721 406.004 62.294 406.952 62.3414Z" fill="#D0F500"/>
<path d="M419.18 69.6405C418.469 75.4228 417.521 81.1104 416.337 86.7979C416.147 87.6985 417.521 88.0776 417.711 87.1771C418.943 81.3948 419.891 75.5176 420.602 69.6405C420.697 68.74 419.275 68.74 419.18 69.6405Z" fill="#D0F500"/>
<path d="M419.891 69.7351C422.545 69.6403 425.247 69.6877 427.901 69.8773C427.664 69.5929 427.427 69.2611 427.238 68.9767C426.195 74.6169 425.294 80.2571 424.536 85.9446C424.394 86.8451 425.816 86.8451 425.958 85.9446C426.716 80.3992 427.569 74.9013 428.612 69.3559C428.707 68.882 428.422 68.5028 427.949 68.4554C425.294 68.2658 422.593 68.2658 419.939 68.3132C418.943 68.3132 418.943 69.7351 419.891 69.7351Z" fill="#D0F500"/>
<path d="M436.48 56.7488C434.821 66.6546 432.878 76.5604 430.745 86.3715C430.555 87.272 431.93 87.6512 432.119 86.7506C434.252 76.9396 436.196 67.0338 437.854 57.128C438.044 56.2274 436.669 55.8483 436.48 56.7488Z" fill="#D0F500"/>
<path d="M437.617 56.0376C437.617 56.1324 437.617 56.1798 437.617 56.2746C437.617 56.6538 437.949 56.9855 438.328 56.9855C438.707 56.9855 439.039 56.6538 439.039 56.2746C439.039 56.1798 439.039 56.1324 439.039 56.0376C439.039 55.6584 438.707 55.3267 438.328 55.3267C437.949 55.3741 437.617 55.6584 437.617 56.0376Z" fill="#D0F500"/>
<path d="M437.949 57.2225C440.129 57.6965 442.215 57.9335 444.442 57.8861C444.206 57.6017 443.969 57.2699 443.779 56.9856C441.93 66.8914 440.224 76.8446 438.613 86.7978C438.471 87.6984 439.845 88.0775 439.987 87.177C441.599 77.2238 443.305 67.2706 445.153 57.3647C445.248 56.9382 444.964 56.4642 444.49 56.4642C442.404 56.4642 440.414 56.2746 438.376 55.8481C437.428 55.6585 437.049 56.9856 437.949 57.2225Z" fill="#D0F500"/>
<path d="M459.609 53.9995C475.724 53.81 491.791 53.9047 507.906 54.3313C508.807 54.3313 508.807 52.9094 507.906 52.9094C491.791 52.5303 475.724 52.4355 459.609 52.5777C458.709 52.5777 458.709 53.9995 459.609 53.9995Z" fill="#D0F500"/>
<path d="M460.7 59.7819C470.7 60.4455 480.748 60.3033 490.749 59.3554C491.649 59.2606 491.649 57.8387 490.749 57.9335C480.748 58.8814 470.7 59.0236 460.7 58.3601C459.799 58.3127 459.799 59.7345 460.7 59.7819Z" fill="#D0F500"/>
<path d="M458.519 66.9389C472.264 66.7019 486.009 66.9389 499.754 67.6498C500.654 67.6972 500.654 66.2753 499.754 66.2279C486.009 65.4696 472.264 65.2326 458.519 65.517C457.619 65.517 457.619 66.9389 458.519 66.9389Z" fill="#D0F500"/>
<path d="M532.268 88.9306C527.433 88.3145 525.111 83.4801 523.737 79.3566C522.457 75.4701 521.983 71.394 523.452 67.5075C526.012 60.6824 532.979 55.1845 539.993 53.6204C547.292 51.9615 554.686 55.848 558.194 62.3413C561.891 69.1664 560.611 77.9347 556.298 84.1436C550.989 91.7744 539.804 92.6275 532.031 88.5989C531.225 88.1723 530.514 89.4046 531.32 89.8312C538.761 93.6703 549.046 93.4807 555.35 87.4613C561.511 81.5842 563.502 71.1096 560.279 63.3366C557.198 55.9902 549.425 50.8714 541.368 51.9141C533.405 52.9568 525.395 59.0236 522.362 66.4648C520.324 71.5362 521.177 76.8446 523.168 81.7738C524.874 85.9447 527.576 89.7364 532.315 90.3525C533.168 90.4473 533.168 89.0254 532.268 88.9306Z" fill="#D0F500"/>
<path d="M534.259 55.5163C536.486 61.2512 538.524 67.081 540.467 72.9581C540.752 73.8112 542.126 73.4321 541.842 72.5789C539.899 66.7018 537.861 60.9194 535.633 55.1371C535.301 54.3314 533.927 54.6631 534.259 55.5163Z" fill="#D0F500"/>
<path d="M541.937 73.7638C547.53 69.8773 553.075 65.8487 558.478 61.7252C559.189 61.1564 558.478 59.9241 557.767 60.4929C552.317 64.6164 546.819 68.645 541.226 72.5315C540.467 73.0529 541.178 74.2852 541.937 73.7638Z" fill="#D0F500"/>
<path d="M541.7 73.8115C548.051 73.5271 554.307 72.4844 560.421 70.6833C561.274 70.4464 560.942 69.0719 560.042 69.3088C554.07 71.0625 547.956 72.1052 541.7 72.3422C540.799 72.437 540.799 73.8589 541.7 73.8115Z" fill="#D0F500"/>
<path d="M540.562 73.3375C536.771 78.2193 533.026 83.1011 529.235 87.9829C528.666 88.6938 529.898 89.4048 530.467 88.6938C534.259 83.812 538.003 78.9302 541.795 74.0484C542.363 73.3375 541.131 72.6265 540.562 73.3375Z" fill="#D0F500"/>
<path d="M177.744 237.186C176.559 236.854 177.27 235.29 177.791 234.769C178.36 234.2 179.782 234.248 180.54 234.248C181.915 234.2 183.289 234.248 184.711 234.2C187.555 234.2 190.399 234.153 193.242 234.153C198.93 234.105 204.617 234.105 210.305 234.058C221.538 234.011 232.723 233.916 243.956 233.868C266.564 233.726 289.125 233.631 311.733 233.584C356.759 233.442 401.739 233.442 446.765 233.679C459.088 233.774 471.458 233.774 483.782 234.295C489.896 234.532 496.01 234.911 502.124 235.48C505.157 235.764 508.238 236.096 511.271 236.475C512.267 236.617 513.262 236.712 514.257 236.902C515.063 237.044 515.537 236.902 515.821 237.66C516.58 239.461 514.163 241.31 512.693 241.404C511.793 241.452 511.793 242.874 512.693 242.826C515.869 242.589 518.096 239.366 516.911 236.333C516.817 236.096 516.675 235.859 516.438 235.859C493.829 232.494 470.937 232.494 448.139 232.352C424.584 232.21 401.075 232.162 377.519 232.115C330.312 232.115 283.058 232.304 235.852 232.541C222.581 232.636 209.31 232.684 196.039 232.778C192.863 232.778 189.735 232.826 186.559 232.826C183.905 232.826 180.777 232.399 178.218 233.157C175.753 233.868 174.142 237.755 177.365 238.655C178.218 238.798 178.597 237.423 177.744 237.186Z" fill="#D0F500"/>
<path d="M174.236 245.528C169.497 262.638 163.714 279.464 156.842 295.863C156.51 296.716 157.885 297.095 158.216 296.242C165.089 279.843 170.871 263.017 175.611 245.907C175.848 245.007 174.473 244.628 174.236 245.528Z" fill="#D0F500"/>
<path d="M174.71 246.95C186.891 248.419 199.451 247.424 211.679 247.282C212.58 247.282 212.58 245.86 211.679 245.86C199.451 246.049 186.891 246.997 174.71 245.528C173.762 245.433 173.81 246.855 174.71 246.95Z" fill="#D0F500"/>
<path d="M210.163 247.187C206.134 262.069 201.868 276.857 197.366 291.645C197.081 292.545 198.456 292.877 198.74 292.024C203.243 277.284 207.508 262.449 211.537 247.566C211.774 246.666 210.4 246.287 210.163 247.187Z" fill="#D0F500"/>
<path d="M157.505 296.574C164.188 296.526 170.824 296.479 177.506 296.432C180.777 296.432 184 296.384 187.27 296.384C190.161 296.384 193.052 296.479 195.896 295.815C196.797 295.626 196.418 294.251 195.517 294.441C192.531 295.152 189.403 294.962 186.322 294.962C183.052 294.962 179.829 295.01 176.559 295.01C170.207 295.057 163.856 295.105 157.505 295.105C156.605 295.152 156.605 296.574 157.505 296.574Z" fill="#D0F500"/>
<path d="M217.604 247.519C249.644 246.618 281.731 246.665 313.771 247.708C314.671 247.756 314.671 246.334 313.771 246.286C281.731 245.244 249.644 245.149 217.604 246.097C216.703 246.097 216.703 247.519 217.604 247.519Z" fill="#D0F500"/>
<path d="M216.277 255.86C234.856 255.813 253.435 255.813 272.062 255.766C272.963 255.766 272.963 254.344 272.062 254.344C253.483 254.391 234.903 254.391 216.277 254.439C215.329 254.439 215.329 255.86 216.277 255.86Z" fill="#D0F500"/>
<path d="M197.176 294.915C198.029 293.493 198.645 291.976 198.977 290.412C199.167 289.512 197.792 289.132 197.603 290.033C197.271 291.502 196.749 292.924 195.944 294.204C195.47 294.962 196.702 295.673 197.176 294.915Z" fill="#D0F500"/>
<path d="M375.007 251.689C371.215 269.795 367.566 287.9 364.011 306.006C363.821 306.906 365.196 307.285 365.386 306.385C368.94 288.279 372.59 270.174 376.381 252.069C376.571 251.168 375.197 250.789 375.007 251.689Z" fill="#D0F500"/>
<path d="M364.295 307.191C383.775 307.712 403.208 308.233 422.687 308.755C441.93 309.276 461.173 310.082 480.416 310.082C481.317 310.082 481.317 308.66 480.416 308.66C461.173 308.66 441.93 307.807 422.687 307.333C403.208 306.811 383.775 306.29 364.295 305.769C363.395 305.721 363.395 307.143 364.295 307.191Z" fill="#D0F500"/>
<path d="M365.717 307.049C371.594 300.697 377.472 294.299 383.349 287.948C383.017 287.948 382.685 287.948 382.353 287.948C384.297 290.365 386.572 292.356 389.226 293.967C390.032 294.441 390.743 293.209 389.937 292.735C387.377 291.218 385.197 289.275 383.349 286.953C383.112 286.668 382.59 286.716 382.353 286.953C376.476 293.304 370.599 299.702 364.722 306.053C364.106 306.717 365.101 307.712 365.717 307.049Z" fill="#D0F500"/>
<path d="M389.605 293.493C395.909 286.052 402.26 278.658 408.563 271.217C409.132 270.506 408.137 269.511 407.568 270.222C401.264 277.663 394.913 285.057 388.61 292.498C387.993 293.161 388.989 294.157 389.605 293.493Z" fill="#D0F500"/>
<path d="M407.568 270.506C408.848 272.212 410.128 273.871 411.407 275.577C411.692 275.957 412.118 276.051 412.545 275.72C418.327 270.98 423.967 266.003 429.418 260.885C430.082 260.268 429.086 259.273 428.423 259.889C422.972 265.008 417.332 269.985 411.55 274.724C411.929 274.772 412.308 274.819 412.687 274.866C411.407 273.16 410.128 271.501 408.848 269.795C408.232 269.037 407 269.748 407.568 270.506Z" fill="#D0F500"/>
<path d="M427.901 261.501C435.816 267.757 443.447 274.345 450.841 281.17C451.505 281.786 452.5 280.791 451.836 280.175C444.443 273.302 436.812 266.762 428.897 260.505C428.186 259.937 427.19 260.932 427.901 261.501Z" fill="#D0F500"/>
<path d="M451.694 280.981C461.458 274.772 468.472 265.198 477.999 258.657C478.757 258.135 478.046 256.903 477.288 257.425C467.761 263.965 460.747 273.539 450.983 279.748C450.225 280.222 450.936 281.454 451.694 280.981Z" fill="#D0F500"/>
<path d="M469.705 260.126C472.691 259.605 475.582 258.846 478.473 257.946C478.189 257.661 477.904 257.377 477.62 257.093C477.099 259.462 476.625 261.832 476.103 264.202C475.914 265.103 477.288 265.482 477.478 264.581C477.999 262.211 478.473 259.842 478.994 257.472C479.089 256.95 478.663 256.429 478.141 256.619C475.25 257.519 472.359 258.278 469.373 258.799C468.472 258.941 468.852 260.316 469.705 260.126Z" fill="#D0F500"/>
<path d="M392.449 255.434C390.79 272.354 389.084 289.275 387.425 306.195C387.33 307.096 388.752 307.096 388.847 306.195C390.505 289.275 392.212 272.354 393.871 255.434C393.918 254.533 392.496 254.533 392.449 255.434Z" fill="#D0F500"/>
<path d="M413.493 252.448C411.739 270.6 410.317 288.801 409.275 307.001C409.227 307.901 410.649 307.901 410.696 307.001C411.739 288.801 413.161 270.6 414.915 252.448C414.962 251.5 413.54 251.547 413.493 252.448Z" fill="#D0F500"/>
<path d="M453.211 251.926C451.362 270.885 450.035 289.843 449.229 308.897C449.182 309.797 450.604 309.797 450.651 308.897C451.457 289.891 452.784 270.885 454.633 251.926C454.727 251.026 453.306 251.026 453.211 251.926Z" fill="#D0F500"/>
<path d="M429.465 245.007C428.233 266.145 427.001 287.237 425.768 308.375C425.721 309.276 427.143 309.276 427.19 308.375C428.422 287.237 429.655 266.145 430.887 245.007C430.934 244.059 429.513 244.059 429.465 245.007Z" fill="#D0F500"/>
<path d="M281.731 255.623C291.352 256.477 300.974 254.344 310.595 255.529C311.496 255.623 311.496 254.202 310.595 254.107C300.974 252.922 291.352 255.055 281.731 254.202C280.783 254.154 280.83 255.576 281.731 255.623Z" fill="#D0F500"/>
<path d="M132.48 170.121C149.259 167.656 165.421 174.386 180.303 181.401C194.095 187.942 207.746 194.624 223.055 196.568C255.758 200.644 287.087 186.899 317.847 178.225C335.905 173.154 354.627 169.599 373.443 171.969C374.343 172.064 374.343 170.642 373.443 170.547C340.123 166.329 308.652 180.358 277.276 189.032C261.351 193.439 244.857 196.757 228.268 195.667C211.632 194.577 196.987 187.847 182.152 180.785C166.558 173.343 149.78 166.187 132.101 168.793C131.201 168.888 131.627 170.263 132.48 170.121Z" fill="#A66DFF"/>
<path d="M222.249 183.06C264.005 185.287 302.68 166.661 342.635 157.703C354.152 155.143 365.859 153.342 377.708 153.105C378.609 153.105 378.609 151.683 377.708 151.683C336 152.631 297.846 171.827 257.274 179.173C245.71 181.259 234.003 182.301 222.249 181.685C221.348 181.543 221.348 182.965 222.249 183.06Z" fill="#A66DFF"/>
<path d="M141.912 134.573C160.823 135.9 178.075 144.337 195.517 150.925C213.243 157.608 231.728 161.352 250.686 160.878C261.54 160.594 272.347 159.03 282.869 156.281C283.769 156.044 283.39 154.669 282.489 154.906C263.389 159.93 243.34 160.878 223.86 157.513C205.281 154.29 188.55 146.185 170.966 139.882C161.581 136.516 151.913 133.862 141.912 133.199C140.964 133.104 141.012 134.526 141.912 134.573Z" fill="#A66DFF"/>
<path d="M270.498 43.4302C270.119 45.8 269.503 48.1224 268.65 50.3975C268.46 50.8714 268.934 51.298 269.313 51.298C299.505 52.6251 329.696 52.9095 359.888 52.1037C360.788 52.0563 360.788 50.6344 359.888 50.6818C329.696 51.4876 299.457 51.2506 269.313 49.8761C269.55 50.1605 269.787 50.4922 269.977 50.7766C270.83 48.5016 271.446 46.2266 271.825 43.8094C272.015 42.9088 270.64 42.5297 270.498 43.4302Z" fill="#D0F500"/>
<path d="M271.446 43.9516C301.827 44.3308 332.161 44.71 362.542 45.0891C363.442 45.0891 363.442 43.6672 362.542 43.6672C332.161 43.2881 301.827 42.9089 271.446 42.5297C270.545 42.4823 270.545 43.9042 271.446 43.9516Z" fill="#D0F500"/>
<path d="M362.399 44.2362C361.451 46.4638 360.741 48.7862 360.361 51.2034C360.219 52.104 361.594 52.4831 361.736 51.5826C362.115 49.3076 362.731 47.08 363.632 44.9471C363.963 44.094 362.731 43.3831 362.399 44.2362Z" fill="#D0F500"/>
<path d="M26.6444 316.243C18.5396 318.187 10.3875 320.13 2.28271 322.073C6.50098 348.71 9.81872 361.981 12.1411 361.791C14.1318 361.649 15.4115 351.696 15.9802 331.932C20.4829 330.367 24.9855 328.851 29.4882 327.287C28.5403 323.637 27.5923 319.94 26.6444 316.243Z" fill="#161616" stroke="#161616" stroke-width="3"/>
<path d="M82.0508 216.948C81.0081 220.076 79.444 225.053 77.8325 231.357C74.4674 244.486 74.3252 250.078 70.9126 266.762C66.8366 286.621 64.7511 290.033 63.424 291.977C57.4047 300.603 49.063 304.537 44.5129 306.669C33.517 311.836 23.2794 312.31 17.2127 312.073C16.9757 314.869 16.7387 321.694 20.8148 328.567C22.8528 331.979 25.27 334.301 27.1185 335.771C33.2326 336.103 43.7546 335.866 55.6036 331.268C60.6751 329.325 73.6142 324.111 83.4727 311.172C91.0561 301.219 93.1415 291.503 95.4639 280.601C99.9666 259.605 94.3738 256.429 99.9666 238.608C103.332 227.802 107.218 222.494 104.469 218.512C101.199 213.631 90.9139 214.91 82.0508 216.948Z" fill="#4C4C4C"/>
<path opacity="0.09" d="M82.6194 216.996C82.1455 222.067 81.4345 229.082 80.4392 237.423C79.5387 244.77 78.5433 252.732 76.9319 262.022C74.1355 277.947 72.7136 285.91 69.6802 292.545C67.026 298.328 61.9072 309.039 50.153 317.144C37.9247 325.533 25.2699 326.339 19.6298 326.386C18.9662 324.87 18.3027 322.926 17.8761 320.699C17.2599 317.476 17.2599 314.679 17.4495 312.594C21.099 312.641 26.123 312.357 31.9528 311.077C42.0956 308.802 48.8733 304.679 50.6269 303.589C54.94 300.887 59.4426 298.091 63.1395 292.593C65.6515 288.896 66.6943 285.531 68.4005 278.516C70.9125 268.184 72.1922 263.065 73.235 255.481C74.3725 246.713 76.8845 233.916 82.6194 216.996Z" fill="#3D3D3D"/>
<path opacity="0.12" d="M17.5442 312.452C17.3546 314.537 17.2598 317.381 17.9234 320.651C18.3973 323.069 19.1083 325.059 19.7718 326.623C26.2651 325.249 46.6929 320.035 59.3477 301.361C63.092 295.816 65.3196 290.365 66.6941 285.673C65.4144 288.659 63.1868 293.019 59.2529 297.238C52.4753 304.489 44.7023 307.143 39.1095 309.039C34.3699 310.698 26.9761 312.594 17.5442 312.452Z" fill="#3D3D3D"/>
<path d="M78.5907 359.753C74.8938 369.943 71.1969 380.133 67.5 390.371C93.4732 393.404 106.697 393.831 107.171 391.556C107.55 389.802 99.8717 386.342 84.2309 381.271C86.3637 374.967 88.5439 368.663 90.6768 362.36C86.6481 361.507 82.6194 360.606 78.5907 359.753Z" fill="#161616" stroke="#161616" stroke-width="3"/>
<path d="M117.124 222.351C117.645 229.366 118.119 238.94 118.024 250.22C117.787 281.36 113.569 304.726 112.337 311.077C109.161 327.713 103.663 349.184 93.7574 373.166C90.6293 373.309 82.9037 373.214 75.1781 368.379C70.4385 365.393 67.4999 361.791 65.8884 359.374C68.7796 353.876 72.3343 346.624 75.7943 337.761C81.9084 322.121 84.5626 309.655 86.2688 301.456C90.1079 283.019 92.0512 273.824 90.4871 263.965C88.9704 254.628 86.5058 253.017 86.885 245.054C86.9798 243.301 88.1647 222.873 100.962 218.986C107.55 217.043 114.09 220.456 117.124 222.351Z" fill="#4C4C4C"/>
<path opacity="0.14" d="M105.891 218.797C110.109 220.598 108.734 232.447 108.355 235.575C103.284 280.222 110.251 256.192 104.137 283.73C95.7479 321.552 84.4202 357.905 80.4389 370.417C79.491 370.417 78.1639 370.323 76.742 369.659C75.4149 369.043 75.1305 368.237 73.5191 366.957C71.7654 365.583 71.1492 365.678 69.8222 364.73C68.6372 363.877 67.168 362.36 66.1252 359.564C68.5899 354.729 71.5284 348.52 74.5144 341.032C78.3061 331.552 80.3915 324.348 82.6665 316.575C82.6665 316.575 89.776 292.071 91.0557 273.35C91.2927 269.605 91.1031 267.046 90.8187 265.198C90.3921 262.259 89.776 260.79 88.8281 257.282C88.5911 256.382 87.264 251.263 86.8374 247.424C85.6525 236.096 91.6718 226.996 94.5156 223.726C95.5109 222.541 96.838 221.261 98.7339 220.266C99.4448 219.934 103.568 217.801 105.891 218.797Z" fill="#3D3D3D"/>
<path opacity="0.11" d="M95.0371 295.91C94.2313 307.428 91.5297 310.84 83.6619 339.136C80.202 351.554 77.6426 361.744 75.9837 368.284C74.6567 367.763 72.9978 366.91 71.2915 365.583C68.7321 363.592 67.2154 361.412 66.3623 359.895C68.7321 355.014 71.9077 348.046 74.9884 339.373C76.2207 335.96 77.0265 333.353 77.7848 330.984C88.5912 296.337 90.2974 285.815 90.8188 278.611C91.2454 272.497 90.9136 267.567 90.8188 266.003C90.3448 259.463 89.2073 254.96 89.2073 254.96C89.2073 254.96 96.6011 273.539 95.0371 295.91Z" fill="#3D3D3D"/>
<path d="M35.1283 201.165C35.2231 201.023 35.6971 201.071 36.645 201.165C38.2565 201.308 38.7779 201.544 39.8206 201.639C40.8159 201.687 42.143 201.781 42.5222 201.165C43.0435 200.36 41.3847 198.796 39.0622 195.43C35.081 189.743 35.2705 187.752 35.6023 186.852C35.6971 186.615 35.9815 185.714 36.5976 185.572C37.4034 185.382 38.3039 186.472 39.157 187.563C40.5789 189.316 41.1477 190.691 41.2899 190.596C41.5742 190.501 39.9154 186.946 40.2945 182.586C40.3893 181.401 40.5789 179.695 41.4321 179.458C42.1904 179.221 43.3279 180.169 44.2284 181.685C44.2284 181.496 44.4654 178.889 45.3659 178.699C46.0769 178.557 46.8826 179.932 47.6884 181.259C48.3519 182.349 48.7785 183.344 49.0155 184.008C48.9681 182.681 49.679 181.591 50.6743 181.259C51.7644 180.927 52.7598 181.78 52.8072 181.828C53.8973 182.823 53.8025 184.577 53.8025 185.193C53.7077 187.894 53.9921 192.444 54.6082 199.08C55.8405 198.606 57.6416 197.753 59.6322 196.426C61.6703 195.051 63.8031 193.25 69.0641 186.946C71.1021 184.482 72.1448 183.25 73.9459 180.832C80.4392 172.159 84.2783 167.04 88.1648 159.788C89.3971 157.466 91.3877 153.532 95.5112 150.025C96.8383 148.887 99.4451 146.754 100.962 147.56C102.052 148.129 102.147 149.93 102.099 152.584C102.052 158.366 102.005 161.21 101.009 165.144C98.7342 174.244 94.5159 180.595 93.568 182.017C89.8237 187.515 86.0793 190.691 81.2449 194.814C76.2209 199.08 72.05 202.587 65.462 205.241C61.1489 206.948 57.7364 207.564 54.1343 208.227C48.1623 209.27 45.0816 209.791 42.0008 208.464C37.593 206.568 34.607 201.876 35.1283 201.165Z" fill="white"/>
<path d="M100.772 146.896C95.6535 147.607 92.6201 152.394 89.8712 156.328C86.3638 161.352 83.0461 166.519 79.6336 171.59C76.221 176.709 72.6663 181.733 68.6376 186.425C66.6944 188.653 64.7037 190.833 62.5235 192.823C60.1063 195.098 57.4521 197.705 54.2765 198.795C53.4234 199.08 53.8026 200.454 54.6557 200.17C59.6323 198.511 63.8506 193.771 67.3105 190.027C71.2918 185.714 74.8465 181.022 78.2117 176.187C81.6242 171.258 84.8945 166.187 88.2123 161.21C91.3404 156.565 95.0373 149.124 101.151 148.271C102.052 148.129 101.673 146.802 100.772 146.896Z" fill="white"/>
<path d="M55.9351 208.986C62.0018 208.417 67.1206 205.621 72.192 202.398C77.216 199.222 82.0031 195.573 86.2687 191.402C91.7667 186.093 96.4115 179.79 99.4923 172.728C102.526 165.666 103.948 157.94 102.952 150.262C102.857 149.361 101.436 149.361 101.53 150.262C103.142 163.106 98.023 175.856 89.776 185.619C86.0791 189.98 81.7661 193.819 77.216 197.232C70.9597 201.876 63.8503 206.853 55.8877 207.611C55.0346 207.659 55.0346 209.081 55.9351 208.986Z" fill="white"/>
<path d="M55.9351 207.516C53.1387 207.469 50.4371 208.132 47.6881 208.322C44.5126 208.559 41.8584 207.611 39.2516 205.857C38.2088 205.146 37.0713 204.293 36.4078 203.156C35.0333 200.739 37.8771 202.16 38.8724 202.445C40.4839 202.919 41.9532 202.729 43.1855 201.639C43.8964 201.023 42.8537 200.028 42.1901 200.644C40.0573 202.54 36.076 198.321 34.6541 200.739C33.564 202.587 36.076 205.241 37.3083 206.236C39.4411 207.99 42.0479 209.412 44.8443 209.744C48.5412 210.17 52.2381 208.891 55.9351 208.985C56.8356 208.938 56.8356 207.516 55.9351 207.516Z" fill="white"/>
<path d="M43.2804 200.833C42.3325 197.658 40.1997 195.193 38.4934 192.397C38.2564 192.017 35.4126 186.851 36.3606 186.425C38.0194 185.666 40.3892 190.453 40.721 191.401C41.0054 192.254 42.3799 191.875 42.0955 191.022C41.3372 188.842 40.0101 186.804 38.0194 185.477C36.9767 184.766 35.46 184.245 34.9861 185.856C34.3699 188.036 35.9814 190.975 37.0715 192.776C38.7778 195.572 41.0054 197.989 41.9533 201.212C42.1903 202.113 43.5648 201.734 43.2804 200.833Z" fill="white"/>
<path d="M42.5219 190.975C42.0954 189.221 41.5266 187.42 41.2422 185.619C41.0527 184.529 41.0053 183.439 41.1001 182.349C41.2422 180.927 41.5266 179.505 42.6641 181.164C44.4178 183.771 44.9866 187.325 45.8397 190.264C46.0767 191.164 47.4512 190.785 47.2142 189.885C46.5032 187.373 45.9345 184.718 44.8918 182.301C44.3704 181.116 43.1855 178.462 41.5266 178.462C39.8204 178.462 39.773 181.116 39.6782 182.301C39.4412 185.382 40.3891 188.321 41.1475 191.259C41.337 192.254 42.7115 191.875 42.5219 190.975Z" fill="white"/>
<path d="M45.8397 184.245C45.6028 183.249 45.1288 181.591 45.508 180.595C46.2189 178.747 47.2616 182.064 47.546 182.775C48.5887 185.287 49.1575 187.942 49.2997 190.643C49.3471 191.544 50.769 191.544 50.7216 190.643C50.532 188.036 50.1054 185.524 49.2049 183.107C48.6835 181.638 47.9252 179.031 46.5033 178.225C43.2803 176.377 44.1809 183.486 44.4179 184.671C44.6548 185.524 46.0293 185.145 45.8397 184.245Z" fill="white"/>
<path d="M50.6269 185.903C50.5795 185.429 50.2477 182.87 50.8165 182.396C52.3806 181.022 52.8071 183.534 52.9967 184.292C53.3285 185.903 53.2811 187.704 53.4233 189.363C53.6603 192.776 53.8972 196.141 54.1342 199.554C54.1816 200.454 55.6035 200.454 55.5561 199.554C55.3191 196.141 55.0821 192.776 54.8452 189.363C54.703 186.994 54.8926 183.865 53.6603 181.733C52.9967 180.595 51.8592 179.552 50.5321 180.405C48.8258 181.543 49.0628 184.576 49.2998 186.283C49.3946 187.183 50.7691 186.804 50.6269 185.903Z" fill="white"/>
<path opacity="0.09" d="M101.294 148.555C101.057 148.555 101.246 152.299 99.7769 157.513C98.6394 161.494 96.7909 165.286 90.819 173.154C85.321 180.405 81.3397 185.666 74.4199 191.828C66.8365 198.606 63.0448 201.971 57.8312 203.25C46.5509 206.047 36.1711 199.554 35.1757 201.734C34.6544 202.919 37.4982 205.289 38.5883 206.094C39.9628 207.09 42.617 208.654 48.8733 208.748C55.5561 208.843 60.6749 207.232 61.8125 206.853C73.8511 202.871 81.7663 195.004 85.9846 190.643C91.5773 184.956 96.1274 180.311 99.1133 172.538C103.9 160.452 101.768 148.555 101.294 148.555Z" fill="#3D3D3D"/>
<path opacity="0.13" d="M100.345 166.85C100.014 166.661 98.0231 169.978 95.1793 173.912C95.1793 173.912 88.3542 183.392 79.5385 191.449C74.7041 195.857 65.8884 202.682 51.9065 208.038C54.7977 208.227 59.1107 208.132 63.8978 206.521C65.4144 206 69.2061 204.578 78.3536 196.615C85.6526 190.264 89.7287 186.757 93.8048 180.595C98.2127 174.007 100.819 167.087 100.345 166.85Z" fill="#3D3D3D"/>
<path d="M106.27 141.683C103.284 142.726 101.436 144.574 99.4924 146.517C94.0892 151.968 92.1459 158.129 90.6293 163.106C86.0792 178.083 83.7568 185.524 82.7141 192.065C81.4818 199.506 80.439 209.365 80.7708 221.024C83.2354 222.73 86.7428 224.911 91.198 226.807C96.3168 228.987 100.914 230.93 106.839 230.456C109.209 230.266 113.285 229.603 117.835 226.807C118.072 223.726 118.593 218.939 119.968 213.299C122.337 203.298 124.897 200.407 129.068 187.989C132.338 178.178 133.949 173.154 133.712 167.135C133.523 162.916 133.144 154.669 126.935 148.224C122.195 143.342 113.711 139.076 106.27 141.683Z" fill="white"/>
<path d="M104.137 142.015C98.4498 145.427 94.9899 151.115 92.1461 156.944C89.1128 163.248 86.8377 169.884 85.1789 176.709C81.7189 190.928 80.8658 205.668 80.2971 220.266C80.2497 221.166 81.6715 221.166 81.7189 220.266C82.2403 206.331 83.046 192.349 86.1742 178.699C87.6909 172.016 89.7763 165.428 92.6675 159.172C95.4639 153.058 98.9238 146.754 104.848 143.247C105.607 142.773 104.896 141.541 104.137 142.015Z" fill="white"/>
<path d="M122.48 145.095C127.835 149.266 131.532 155.143 132.717 161.826C134.044 169.457 132.196 177.23 129.636 184.387C127.172 191.307 123.949 197.895 121.721 204.909C119.494 211.782 118.119 218.939 117.55 226.143C117.456 227.043 118.878 227.043 118.972 226.143C119.636 218.038 121.342 210.028 124.091 202.397C126.698 195.098 130.158 188.131 132.385 180.69C134.376 174.007 135.419 166.755 133.76 159.835C132.291 153.579 128.594 148.034 123.522 144.147C122.764 143.531 121.769 144.526 122.48 145.095Z" fill="white"/>
<path d="M80.5816 221.214C86.3166 226.332 93.426 229.698 101.057 230.788C107.124 231.641 114.944 231.688 118.925 226.238C119.447 225.479 118.214 224.768 117.693 225.527C113.712 230.93 104.896 230.219 99.1136 229.034C92.5729 227.707 86.5536 224.626 81.5769 220.218C80.9134 219.602 79.9181 220.597 80.5816 221.214Z" fill="white"/>
<path opacity="0.11" d="M112.384 141.872C113.996 144.669 108.024 149.835 103.426 157.892C100.488 163.011 99.3501 167.466 97.1224 176.377C91.9089 197.231 92.9042 220.929 93.3307 227.802C89.2547 225.621 85.226 223.489 81.1499 221.308C81.3395 216.664 81.7187 210.028 82.477 202.065C83.7093 189.458 84.4202 182.586 86.8375 173.675C88.9703 165.949 91.0557 158.745 96.7433 151.02C100.44 145.996 104.374 142.536 107.218 140.356C109.019 140.261 111.531 140.403 112.384 141.872Z" fill="#3D3D3D"/>
<path opacity="0.15" d="M94.2791 156.186C94.8952 156.376 92.3832 166.281 88.3545 188.178C85.7003 202.539 85.0842 207.706 87.217 214.104C89.966 222.304 95.5114 227.28 94.4687 228.37C93.8051 229.034 90.9613 228.086 81.1503 220.74C80.9133 210.407 81.5769 196.141 85.7003 179.789C88.9707 166.85 93.6155 155.949 94.2791 156.186Z" fill="#3D3D3D"/>
<path d="M138.5 122.345C140.727 124.383 140.443 128.364 140.016 134.147C139.732 138.176 139.59 140.214 138.215 142.157C135.371 146.185 128.926 148.034 123.854 145.759C123.238 145.475 120.11 144.005 118.404 140.451C115.939 135.332 118.498 130.213 119.02 129.265C123.001 121.824 134.518 118.648 138.5 122.345Z" fill="#333333"/>
<path d="M138.594 96.135C140.395 96.5142 141.485 99.0262 143.666 104.098C145.514 108.411 146.367 111.918 146.746 113.577C147.363 116.468 147.694 118.933 147.836 120.781C146.557 121.16 145.277 121.492 143.997 121.871C143.713 123.53 143.097 125.995 141.865 128.744C140.158 132.535 138.736 135.806 135.419 137.322C131.58 139.076 127.456 137.512 126.082 136.848C125.56 138.176 124.802 139.692 123.807 141.304C123.096 142.441 122.337 143.389 121.674 144.195C117.361 145.285 115.37 144.147 114.612 143.579C110.63 140.64 110.962 131.161 117.076 120.449C116.745 119.928 116.223 119.17 115.56 118.316C114.185 116.61 113.711 116.563 113.095 115.568C112.905 115.283 111.436 112.771 112.621 110.496C113.19 109.406 114.375 108.458 115.702 108.363C117.313 108.221 117.835 109.501 119.209 109.88C121.579 110.591 124.186 108.032 130.679 101.917C136.13 96.7986 137.22 95.8507 138.594 96.135Z" fill="white"/>
<path d="M143.144 103.908C145.372 109.501 146.794 115.33 147.315 121.35C147.363 122.013 148.453 122.013 148.405 121.35C147.884 115.236 146.462 109.311 144.187 103.624C143.95 102.96 142.907 103.244 143.144 103.908Z" fill="black"/>
<path d="M147.6 120.876C146.32 121.018 145.04 121.207 143.761 121.35C143.097 121.444 143.097 122.487 143.761 122.44C145.04 122.298 146.32 122.108 147.6 121.966C148.263 121.824 148.263 120.781 147.6 120.876Z" fill="white"/>
<path d="M143.476 121.824C142.623 126.563 140.68 131.161 137.504 134.81C133.712 139.266 127.693 136.943 123.048 135.047C122.432 134.763 122.148 135.806 122.764 136.09C127.124 137.891 133.381 140.356 137.315 136.564C141.201 132.867 143.523 127.322 144.471 122.108C144.614 121.445 143.618 121.16 143.476 121.824Z" fill="black"/>
<path d="M125.371 137.085C124.376 139.36 123.143 141.493 121.721 143.531C121.342 144.1 122.243 144.621 122.622 144.053C124.044 142.015 125.276 139.834 126.271 137.607C126.556 136.991 125.655 136.469 125.371 137.085Z" fill="white"/>
<path d="M122.669 136.232C123.38 136.991 124.186 137.654 125.086 138.128C125.703 138.46 126.224 137.559 125.608 137.227C124.755 136.754 124.044 136.185 123.38 135.474C122.954 134.952 122.195 135.711 122.669 136.232Z" fill="white"/>
<path d="M139.163 111.634C138.879 111.065 138.926 110.354 139.305 109.88C139.021 109.785 138.689 109.738 138.405 109.643C138.547 110.449 138.547 111.207 138.5 112.013C138.689 111.823 138.879 111.634 139.021 111.491C139.068 111.586 139.116 111.681 139.21 111.776C139.353 111.112 138.31 110.828 138.168 111.491C138.026 112.06 138.405 112.581 139.021 112.581C139.353 112.581 139.542 112.344 139.542 112.06C139.637 111.16 139.59 110.306 139.447 109.406C139.4 109.027 138.784 108.885 138.547 109.169C137.836 110.069 137.694 111.207 138.263 112.202C138.547 112.771 139.495 112.25 139.163 111.634Z" fill="black"/>
<path d="M136.319 105.235C136.983 103.576 138.879 103.102 140.348 104.05C140.917 104.429 141.438 103.481 140.869 103.15C138.784 101.775 136.224 102.676 135.276 104.951C135.04 105.614 136.082 105.899 136.319 105.235Z" fill="black"/>
<path d="M134.139 113.766C133.949 113.766 133.712 113.766 133.523 113.766C133.475 113.672 133.475 113.577 133.428 113.482C133.523 113.15 133.665 113.056 133.949 113.15C133.997 113.198 134.092 113.293 134.139 113.34C134.139 113.34 134.139 113.34 134.139 113.293C133.997 113.056 133.665 112.961 133.428 113.103C133.191 113.245 133.096 113.577 133.238 113.814C133.428 114.051 133.712 114.193 133.997 114.146C134.281 114.051 134.518 113.814 134.518 113.482C134.518 112.771 133.523 112.582 133.191 113.15C133.049 113.387 133.144 113.719 133.381 113.861C133.665 114.098 133.997 114.003 134.139 113.766Z" fill="black"/>
<path d="M136.509 115.947C136.414 116.041 136.272 116.184 136.13 116.278C136.13 116.278 136.13 116.278 136.177 116.278C136.082 116.278 135.987 116.278 135.893 116.278C135.893 116.278 135.845 116.278 135.845 116.231C135.798 116.184 135.703 116.089 135.656 116.041V116.089C135.656 115.947 135.608 115.804 135.608 115.662C135.656 115.615 135.703 115.567 135.75 115.52C135.513 115.71 135.419 115.994 135.561 116.231C135.703 116.468 136.082 116.61 136.272 116.421C136.604 116.184 136.841 115.71 136.461 115.378C136.319 115.236 136.082 115.141 135.845 115.236C135.608 115.283 135.513 115.425 135.419 115.662C135.324 115.947 135.513 116.231 135.798 116.326C136.13 116.421 136.414 116.231 136.509 115.947Z" fill="black"/>
<path d="M132.765 115.994C132.717 115.994 132.717 115.994 132.67 115.994C132.006 115.994 131.959 117.084 132.67 117.084C132.717 117.084 132.717 117.084 132.765 117.084C133.476 117.084 133.476 115.994 132.765 115.994Z" fill="black"/>
<path d="M137.03 123.009C137.789 125.331 138.973 127.417 141.343 128.317C141.959 128.554 142.244 127.559 141.628 127.274C139.684 126.516 138.689 124.573 138.073 122.677C137.836 122.061 136.841 122.345 137.03 123.009Z" fill="black"/>
<path d="M136.888 123.577C137.173 123.151 137.646 122.914 138.215 122.819C138.5 122.772 138.642 122.392 138.594 122.156C138.5 121.824 138.215 121.729 137.931 121.776C137.125 121.871 136.462 122.345 135.988 123.009C135.561 123.577 136.462 124.146 136.888 123.577Z" fill="white"/>
<path d="M116.745 117.416C113.854 118.459 112.29 114.003 112.811 111.918C113.095 110.828 113.854 109.548 114.991 109.216C116.555 108.743 117.977 109.975 118.972 110.923C119.446 111.397 120.205 110.638 119.731 110.164C118.451 108.932 116.887 107.747 114.991 108.126C113.285 108.458 112.242 110.07 111.816 111.634C111.057 114.525 113.38 119.738 117.029 118.459C117.693 118.222 117.408 117.179 116.745 117.416Z" fill="black"/>
<path d="M134.85 97.1777C134.281 97.8412 133.428 98.9314 132.433 100.353C128.831 105.614 129.162 107.747 126.65 109.264C124.707 110.449 121.721 110.828 119.446 109.88C117.74 109.169 117.266 108.079 115.797 108.126C114.185 108.174 112.668 109.501 112.052 111.065C111.294 112.913 112.052 114.62 112.574 115.71C113.048 116.705 113.711 118.174 115.133 118.506C116.034 118.696 116.839 118.364 117.266 118.127C117.218 118.648 117.124 119.454 117.076 120.449C116.839 124.573 117.313 127.417 117.503 129.265C117.977 133.72 118.403 137.275 117.076 140.64C115.038 145.664 109.967 147.892 108.118 148.697C100.251 152.157 92.9516 149.266 91.9563 148.84C90.3922 148.176 82.9036 145.095 81.0551 138.081C79.9176 133.862 81.1973 129.597 81.7187 127.796C81.9557 127.037 82.5718 125.142 83.8041 122.961C86.5057 118.127 90.3922 115.188 93.0938 113.529C93.9943 110.259 95.511 105.567 98.1652 100.211C101.151 94.1443 102.81 90.7792 106.602 87.651C112.621 82.6744 119.446 82.0583 121.674 81.9161C122.811 81.8213 128.404 81.4895 135.039 84.1911C139.732 86.087 145.23 88.362 147.505 94.0021C150.112 100.59 146.415 107.131 145.704 108.363C145.514 107.557 145.135 106.325 144.329 105.14C143.144 103.387 141.817 102.676 139.827 101.301C138.547 100.306 136.841 99.0262 134.85 97.1777Z" fill="#333333"/>
<path d="M115.323 144.005C117.361 145.19 119.731 145.475 122.006 144.716C122.859 144.432 122.48 143.057 121.626 143.342C119.731 143.958 117.787 143.768 116.034 142.773C115.228 142.346 114.517 143.579 115.323 144.005Z" fill="white"/>
<path opacity="0.14" d="M113.095 115.662C113.474 116.752 114.47 117.511 115.56 117.653C116.745 117.795 117.93 117.226 118.546 116.183C118.309 117.747 118.072 120.923 119.541 124.43C121.532 129.265 125.418 131.54 127.124 132.535C131.295 134.905 135.277 135.047 137.22 135C136.793 135.758 135.845 136.99 134.234 137.796C130.395 139.692 126.366 137.133 126.129 136.99C125.086 139.265 123.996 140.924 123.143 142.109C121.958 143.721 121.484 144.1 121.152 144.242C118.877 145.569 115.891 144.195 115.038 143.768C114.09 144.669 112.716 145.806 110.915 146.896C109.398 147.797 105.322 150.167 99.6819 150.214C99.6819 150.214 92.0985 150.214 85.9844 145.095C83.6146 143.105 82.6193 141.351 82.3349 140.782C82.0979 140.308 81.1026 138.412 80.8656 135.332C80.3443 129.407 82.9037 124.383 84.3255 122.108C86.8849 118.032 90.1553 115.615 92.2407 114.335C92.0985 114.856 90.3449 122.203 94.2314 125.757C99.1132 130.165 110.157 125.994 112.574 119.643C113.19 118.079 113.19 116.61 113.095 115.662Z" fill="#111111"/>
<path opacity="0.07" d="M118.878 128.791C118.499 128.98 119.399 131.445 120.252 133.199C121.627 136.09 123.333 138.223 124.565 139.502C124.897 138.649 125.229 137.796 125.561 136.99C126.651 137.464 128.689 138.128 131.248 137.986C132.954 137.891 134.329 137.464 135.277 137.085C127.978 136.943 124.281 134.715 122.243 132.677C120.584 131.018 119.257 128.601 118.878 128.791Z" fill="#3D3D3D"/>
<path d="M236.61 85.0443C235.946 84.6651 235.804 83.7646 235.709 83.1484C235.377 80.9208 237.036 79.1197 237.321 78.7406C239.074 76.7973 240.07 77.7926 241.729 75.9916C242.961 74.6645 242.866 73.5744 244.762 71.8207C245.994 70.6358 246.421 70.778 246.516 70.8254C247.179 71.1098 246.61 72.5791 247.274 74.8541C247.843 76.7499 248.554 76.7499 248.791 78.3614C248.838 78.788 249.17 80.9208 247.89 82.1531C247.321 82.7219 246.563 82.864 244.999 83.1484C243.198 83.4802 242.961 83.2906 241.729 83.5276C238.743 84.0964 237.7 85.6604 236.61 85.0443Z" fill="white"/>
<path d="M236.468 83.0537C229.311 90.4475 222.154 97.8887 214.997 105.283C214.097 106.325 214.049 107.889 214.855 108.932C215.755 110.07 217.367 110.354 218.647 109.548C225.993 101.017 233.292 92.4382 240.638 83.9068C239.264 83.6225 237.89 83.3381 236.468 83.0537Z" fill="white"/>
<path d="M210.589 123.53C210.826 124.146 210.068 125.426 205.944 128.175C204.759 127.938 203.764 127.274 203.575 126.421C203.29 124.999 205.328 123.814 206.229 123.388C207.888 122.629 210.257 122.677 210.589 123.53Z" fill="white"/>
<path d="M127.219 143.057C124.66 143.626 120.157 144.716 118.072 148.413C116.697 150.83 116.982 153.39 117.077 154.29C117.55 158.319 120.347 161.684 123.522 163.153C127.409 164.907 131.438 163.58 133.476 162.869C151.202 156.755 160.065 153.722 163.667 151.92C174.094 146.659 185.706 140.735 198.93 129.739C202.342 126.895 205.044 124.383 206.94 122.582C207.698 123.009 209.404 123.814 211.443 123.577C213.101 123.388 214.192 122.63 215.803 121.492C216.94 120.686 218.268 119.738 219.452 117.985C220.59 116.326 220.969 114.857 221.301 113.624C221.633 112.25 222.296 109.785 221.443 109.264C220.827 108.885 220.163 109.927 218.505 109.975C218.362 109.975 216.324 109.975 215.424 108.695C214.571 107.51 215.471 106.42 214.713 105.472C213.907 104.429 211.822 104.524 210.495 104.903C207.414 105.851 205.945 109.264 204.997 111.065C202.39 116.231 198.646 119.027 191.678 124.288C186.275 128.364 181.441 130.26 174.947 132.867C172.388 133.91 167.506 135.806 161.06 137.37C150.207 139.929 141.628 139.834 127.219 143.057Z" fill="white"/>
<path d="M119.446 147.939C124.328 143.057 132.006 142.868 138.452 141.967C145.988 140.924 153.524 139.787 160.918 138.033C174.047 135 187.081 129.928 197.366 121.018C200.067 118.648 202.579 116.041 204.665 113.055C206.561 110.354 210.163 102.391 214.618 106.183C215.329 106.752 216.324 105.756 215.613 105.188C213.907 103.718 211.632 103.624 209.641 104.619C206.845 106.041 205.565 109.169 203.907 111.681C199.593 118.222 193.053 123.246 186.323 127.085C172.151 135.142 155.847 138.033 139.922 140.356C132.717 141.398 123.996 141.493 118.498 146.944C117.787 147.56 118.783 148.555 119.446 147.939Z" fill="white"/>
<path d="M118.403 146.233C115.228 151.636 115.844 158.793 121.152 162.632C127.504 167.229 136.414 162.869 142.907 160.641C158.216 155.333 172.814 148.129 186.37 139.218C193.906 134.289 201.063 128.791 207.84 122.866C208.551 122.25 207.508 121.255 206.845 121.871C185.564 140.45 159.733 155.143 132.338 162.49C127.646 163.769 122.764 163.485 119.731 159.219C117.076 155.57 117.408 150.735 119.636 146.991C120.11 146.185 118.877 145.474 118.403 146.233Z" fill="white"/>
<path d="M220.542 108.268C220.779 109.359 221.016 110.543 220.922 111.681C220.732 113.245 219.974 113.766 219.405 115.046C219.168 115.615 219.121 116.184 218.931 116.752C218.552 118.032 218.03 118.316 217.13 119.075C216.135 119.88 215.566 120.828 214.713 121.729C213.338 123.198 212.532 122.724 210.826 122.535C209.594 122.392 208.314 122.203 207.082 122.061C206.181 121.966 206.181 123.388 207.082 123.483C209.12 123.767 212.58 124.952 214.476 123.957C215.234 123.577 215.661 122.866 216.135 122.203C216.751 121.35 217.319 120.639 218.267 120.165C218.741 119.928 218.978 120.117 219.405 119.738C219.926 119.312 220.068 118.601 220.211 117.985C220.542 116.468 221.016 115.473 221.68 114.146C222.675 112.202 222.343 110.022 221.917 107.984C221.727 106.989 220.353 107.368 220.542 108.268Z" fill="white"/>
<path d="M214.713 105.614C213.623 107.226 214.476 109.548 216.182 110.306C218.173 111.207 220.4 109.88 221.396 108.126C221.87 107.321 220.637 106.61 220.163 107.415C219.547 108.505 218.268 109.501 216.988 109.074C215.85 108.742 215.234 107.321 215.945 106.325C216.419 105.567 215.187 104.856 214.713 105.614Z" fill="white"/>
<path d="M215.613 106.278C222.77 98.8365 229.832 91.3005 236.799 83.6697C237.416 83.0062 236.42 81.9635 235.804 82.6744C228.837 90.3052 221.775 97.8412 214.618 105.282C213.954 105.899 214.95 106.941 215.613 106.278Z" fill="white"/>
<path d="M221.348 107.795C228.173 99.9269 234.951 92.0591 241.776 84.1913C242.392 83.4804 241.349 82.4851 240.781 83.196C233.956 91.0638 227.178 98.9316 220.353 106.799C219.737 107.51 220.732 108.506 221.348 107.795Z" fill="white"/>
<path d="M210.021 123.34C209.12 124.241 208.219 125.189 207.319 126.089C207.035 126.374 206.608 126.99 206.276 127.18C205.091 127.796 204.475 126.611 204.049 125.852C203.575 125.047 202.342 125.758 202.816 126.563C203.527 127.748 204.712 129.265 206.276 128.791C207.129 128.554 207.746 127.701 208.314 127.085C209.215 126.184 210.115 125.236 211.016 124.336C211.679 123.672 210.637 122.677 210.021 123.34Z" fill="white"/>
<path d="M241.397 84.0014C244.241 85.2811 247.701 84.5228 249.17 81.5842C249.881 80.1623 249.928 78.456 249.407 76.9867C248.506 74.6169 245.236 72.5315 248.127 70.0669C248.838 69.4507 247.796 68.4554 247.132 69.0716C245.473 70.4935 244.999 72.6737 246.089 74.5695C247.132 76.418 248.791 77.4607 248.269 79.8779C247.701 82.7217 244.667 83.9066 242.155 82.7691C241.255 82.3899 240.544 83.6222 241.397 84.0014Z" fill="white"/>
<path d="M236.705 82.4374C236.989 80.352 237.747 78.9775 239.596 77.9347C240.544 77.4134 241.539 76.9868 242.392 76.3233C244.146 74.9014 244.667 72.2946 246.753 71.2519C247.558 70.8253 246.848 69.6404 246.042 70.0196C244.857 70.5883 244.146 71.4888 243.482 72.6264C242.44 74.2852 241.492 75.3753 239.738 76.2759C236.894 77.7452 235.709 79.2144 235.283 82.4374C235.188 83.3379 236.61 83.3379 236.705 82.4374Z" fill="white"/>
<path d="M236.468 83.812C237.795 83.2906 239.169 83.4802 240.307 84.3333C241.018 84.9021 241.729 83.6698 241.018 83.101C239.596 82.0109 237.7 81.7739 236.041 82.4375C235.235 82.7692 235.615 84.1437 236.468 83.812Z" fill="white"/>
<path d="M241.16 77.2713C243.008 76.6552 244.904 76.6078 246.8 77.0818C247.701 77.3187 248.08 75.9442 247.179 75.7073C245.046 75.1859 242.866 75.2333 240.781 75.8969C239.928 76.1812 240.307 77.5557 241.16 77.2713Z" fill="#5222D0"/>
<path d="M240.354 77.2713C243.814 75.802 244.857 71.7733 248.08 69.9722C247.795 69.5931 247.511 69.2139 247.227 68.8347C244.762 71.0624 246.942 74.0957 247.558 76.5603C247.89 76.2759 248.269 76.039 248.601 75.7546C246.8 74.9962 244.999 74.6645 243.056 74.8067C243.245 75.1858 243.482 75.5176 243.672 75.8968C244.335 74.6171 245.141 73.4796 246.042 72.3421C245.662 72.1051 245.236 71.8681 244.857 71.6311C244.478 72.6264 244.004 73.8587 244.193 74.9015C244.241 75.1858 244.572 75.4228 244.857 75.4228C245.994 75.3754 246.279 73.8113 246.658 72.9582C246.231 72.816 245.757 72.7212 245.331 72.579C245.426 73.29 245.662 74.1431 245.568 74.9015C245.662 74.7119 245.805 74.4749 245.899 74.2853C245.568 74.4749 244.288 74.3327 243.719 74.4749C242.771 74.6645 241.966 74.9962 241.112 75.4702C240.496 75.802 240.781 76.8447 241.492 76.7973C242.677 76.7025 243.861 76.5603 245.046 76.4655C245.947 76.3707 245.947 74.9489 245.046 75.0436C243.861 75.1384 242.677 75.2806 241.492 75.3754C241.634 75.802 241.729 76.2759 241.871 76.7025C242.866 76.1812 243.956 75.802 245.094 75.7546C245.52 75.7072 246.184 75.8968 246.563 75.6124C247.416 74.9962 246.847 73.527 246.753 72.6264C246.658 72.0103 245.757 71.5363 245.426 72.2473C245.378 72.3895 244.62 74.0009 244.857 74.0009C245.094 74.1905 245.331 74.3327 245.52 74.5223C245.378 73.8113 245.947 72.6264 246.184 72.0103C246.421 71.3467 245.426 70.778 244.999 71.2993C244.004 72.4842 243.15 73.7639 242.392 75.1384C242.155 75.565 242.44 76.2759 243.008 76.2285C244.715 76.0864 246.279 76.3233 247.843 76.9869C248.411 77.2239 249.075 76.8447 248.885 76.1812C248.411 74.2853 246.326 71.4889 248.175 69.8301C248.791 69.2613 247.985 68.3134 247.321 68.6925C244.146 70.4936 243.008 74.5223 239.596 75.9916C238.79 76.4181 239.548 77.603 240.354 77.2713Z" fill="#282828"/>
<path d="M247.274 68.503C245.283 69.7353 244.051 71.5838 242.582 73.3375C241.681 74.4276 240.686 75.0911 239.691 76.039C239.312 76.3708 238.98 76.5604 238.98 77.0818C238.98 77.1765 239.027 77.3187 239.169 77.3661C242.155 78.6458 245.473 75.2333 248.412 77.6505C248.601 77.7927 248.838 77.7927 248.98 77.5557C249.833 76.3234 247.938 75.1385 247.227 74.3802C246.99 74.1432 246.516 74.3802 246.611 74.7119C246.753 75.1859 246.705 75.1385 247.037 75.5177C247.321 75.8968 247.938 75.5177 247.653 75.1385C247.558 74.9015 247.416 74.7119 247.321 74.475C247.132 74.5698 246.942 74.7119 246.705 74.8067C247.037 75.1385 248.791 76.513 248.364 77.1292C248.554 77.0818 248.743 77.0818 248.933 77.0344C247.938 76.2286 246.8 75.8495 245.473 75.8968C244.715 75.9442 243.956 76.0864 243.198 76.2286C242.582 76.3708 242.013 76.513 241.397 76.5604C240.733 76.6552 239.928 77.0344 240.449 76.1338C240.733 75.6599 241.587 75.2333 241.966 74.8541C242.534 74.2854 243.056 73.6692 243.53 73.0057C244.762 71.489 245.9 69.9723 247.558 68.9296C248.032 68.8822 247.653 68.266 247.274 68.503Z" fill="#282828"/>
<path d="M239.975 77.603C241.397 77.7926 242.771 77.3187 244.193 77.1291C245.378 76.9869 246.326 77.1765 247.416 77.5556C248.032 77.7926 248.412 77.9348 249.075 77.84C249.312 77.7926 249.454 77.6504 249.407 77.4135C249.312 76.7973 249.17 76.4655 248.838 75.9442C248.601 75.565 247.985 75.9442 248.222 76.3233C248.554 76.7025 248.696 77.1291 248.743 77.603C248.838 77.4608 248.98 77.3187 249.075 77.1765C247.748 77.3187 246.421 76.3707 245.046 76.3707C243.435 76.4181 241.776 77.1765 240.165 76.9395C239.691 76.8447 239.501 77.5082 239.975 77.603Z" fill="#282828"/>
<path d="M246.705 69.7353C246.942 69.4035 247.227 69.1191 247.606 68.9295C247.701 68.8821 248.032 68.6452 248.127 68.74C248.269 68.8348 247.89 69.1191 247.795 69.1665C247.227 69.6405 246.847 70.2566 246.563 70.9202C246.373 71.3468 247.084 71.5363 247.227 71.1098C247.511 70.4462 247.985 70.0197 248.506 69.4983C248.838 69.2139 249.028 68.7874 248.696 68.3608C247.985 67.4129 246.61 68.6452 246.136 69.2613C245.9 69.5931 246.421 70.1145 246.705 69.7353Z" fill="#282828"/>
<path d="M248.317 68.1711C247.511 68.6925 246.942 69.4982 246.705 70.4461C246.61 70.8727 247.274 71.0623 247.369 70.6357C247.558 69.8774 247.985 69.2612 248.649 68.7873C249.075 68.5029 248.696 67.8867 248.317 68.1711Z" fill="#282828"/>
<path d="M118.972 147.844C120.489 144.858 125.987 143.721 129.02 143.342C129.921 143.199 129.542 141.825 128.641 141.967C125.229 142.441 119.494 143.768 117.74 147.133C117.361 147.939 118.593 148.697 118.972 147.844Z" fill="white"/>
<path opacity="0.13" d="M117.361 154.717C121.627 154.432 127.835 153.864 135.182 152.442C156.226 148.413 171.203 140.593 180.35 135.758C187.934 131.73 197.982 125.71 209.025 117.037C213.86 115.473 216.846 113.34 218.741 111.634C220.021 110.496 220.969 109.359 221.443 109.596C222.201 110.022 221.017 113.956 219.405 116.8C217.983 119.359 216.324 120.828 215.803 121.302C214.476 122.44 213.717 123.246 212.438 123.577C210.068 124.194 207.935 122.914 207.224 122.44C205.471 123.814 202.911 125.852 199.736 128.27C186.939 137.986 180.493 142.868 172.009 147.513C164.188 151.778 157.648 154.338 144.898 159.267C143.713 159.741 142.149 160.262 139.021 161.305C130.679 164.101 128.689 164.433 126.366 164.006C125.418 163.817 123.096 163.39 120.963 161.542C118.167 159.03 117.55 155.807 117.361 154.717Z" fill="#3D3D3D"/>
<path opacity="0.19" d="M154.946 155.048C154.851 154.906 155.657 154.243 173.431 142.962C196.844 128.08 195.185 129.407 197.65 127.606C207.888 120.023 212.438 114.904 214.807 116.42C216.419 117.463 216.703 121.255 214.95 122.914C213.433 124.383 210.257 124.241 207.414 122.155C201.679 127.274 193.147 134.241 181.914 141.303C168.643 149.503 155.278 155.617 154.946 155.048Z" fill="#3D3D3D"/>
</svg>
