<svg width="495" height="453" viewBox="0 0 495 453" fill="none" xmlns="http://www.w3.org/2000/svg">
<path d="M229.923 237.032C229.923 407.936 230.703 400.383 228.102 407.208C226.408 412.142 223.274 416.527 219.061 419.866C214.367 423.84 208.758 426.736 202.676 428.329C201.288 428.633 127.292 441.008 52.1775 450.899C23.919 454.624 5.21775 453.302 7.41529 418.21C7.4309 417.965 0.328553 95.3338 0.31555 95.0866C-0.461738 71.1551 0.197264 47.2014 2.28943 23.3399C3.69378 8.62196 16.567 2.74751 31.9654 0.595988C44.7527 -1.18593 186.155 22.3511 202.726 28.8864C208.628 31.5148 213.582 35.7124 216.978 40.9608C230.439 59.3038 226.562 84.5983 226.774 100.54C227.121 126.241 227.175 96.8367 230.359 237.002C230.215 237.03 230.068 237.04 229.923 237.032ZM11.9015 402.969C12.0237 429.592 6.6559 450.359 38.8805 447.888C78.8471 444.827 161.566 429.596 190.451 427.132C210.947 425.386 227.827 415.124 227.641 396.067C226.174 242.684 228.161 276.04 225.279 143.078C224.925 126.703 224.444 110.326 224.123 93.9509C223.718 73.1455 226.661 58.1975 214.594 41.4798C206.324 30.027 193.806 27.0506 174.134 24.2382C93.4705 12.7047 50.4975 3.20033 35.5517 4.44131C24.889 5.32737 7.0408 11.5592 6.16438 20.9118C0.963108 75.9457 11.8859 399.118 11.9015 402.969Z" fill="white"/>
<path d="M263.467 236.292C268.436 69.0309 266.925 128.135 266.815 80.1753C266.772 61.7001 271.206 40.8311 287.681 30.8249C302.32 21.9374 449.46 -0.995125 461.923 0.595873C474.287 2.18206 489.336 7.85825 490.977 19.4432C491.911 26.0519 492.836 32.6827 493.086 39.3355C495.474 103.017 492.741 94.3205 492.433 113.745C492.173 129.655 492.94 188.568 491.653 240.971C490.457 289.435 487.117 371.096 486.244 403.471C485.984 413.398 488.274 422.475 484.755 436.727C482.072 447.587 473.117 452.796 461.746 452.411C444.497 451.485 427.324 449.579 410.318 446.705C342.678 436.645 399.38 445.551 324.692 433.625C291.374 428.301 290.708 429.064 282.594 424.89C277.813 422.706 273.672 419.461 270.523 415.432C267.376 411.404 265.317 406.714 264.524 401.77C264.093 399.077 264.223 410.99 264.223 236.32C263.95 236.308 263.716 236.308 263.467 236.292ZM487.967 228.11C487.865 228.114 487.765 228.108 487.663 228.096C487.897 212.776 488.352 197.471 488.318 182.151C488.027 54.969 491.742 118.511 488.253 24.2064C488.22 21.6275 487.479 19.1003 486.103 16.8702C484.727 14.64 482.761 12.7826 480.399 11.4784C470.397 5.38241 458.367 2.9541 446.59 4.65423C426.418 6.85715 399.707 11.7648 370.944 16.4031C317.66 25.0141 311.704 24.576 299.875 28.4923C286.352 32.9667 282.391 34.6115 275.039 48.9819C268.41 61.9546 270.079 73.591 269.513 106.875C266.184 302.689 267.37 162.868 266.464 396.161C266.269 400.391 267.168 404.603 269.088 408.434C271.008 412.264 273.889 415.599 277.484 418.147C283.884 422.979 291.605 426.006 299.758 426.879C338.055 430.704 311.776 428.76 419.648 443.789C433.771 446.071 448.034 447.515 462.35 448.109C472.692 448.315 480.455 441.635 481.192 435.073C483.316 416.115 481.987 406.017 482.111 388.483C482.18 380.247 480.921 422.353 487.967 228.11Z" fill="white"/>
<path d="M29.3094 406.814C28.1703 392.769 26.5943 360.255 24.4358 329.427C21.133 282.243 22.1628 260.245 20.2748 111.682C19.9133 83.5461 22.3267 61.8424 22.852 53.3342C55.0661 59.943 110.821 62.9953 208.277 73.6501C211.996 74.0564 211.898 74.1543 212.113 77.7328C215.543 134.598 214.713 191.532 215.396 248.445C215.864 287.414 216.517 377.546 216.517 383.047C184.216 387.057 190.076 385.909 152.801 389.825C43.7663 401.278 39.9954 407.375 29.3094 406.814ZM201.992 271.039L201.589 265.884C205.273 267.002 208.94 268.1 212.791 269.264C212.791 269.02 211.807 126.469 209.709 78.6776C209.644 77.1503 209.159 76.6583 207.586 76.5188C141.269 70.6443 64.1293 64.3586 26.3056 56.8638C26.0456 57.8722 24.7687 90.8426 24.7817 103.992C24.8025 125.568 26.5059 159.645 26.5059 291.485C27.7048 291.808 26.5059 291.891 31.8814 288.852C36.9761 285.97 42.0889 283.124 47.181 280.254C50.6476 281.011 54.1039 281.743 57.5835 282.5C47.4499 286.223 37.7719 290.963 28.7164 296.638C28.1879 296.891 27.7585 297.294 27.4911 297.794C27.2237 298.292 27.1318 298.857 27.2289 299.408C27.8452 309.101 28.3185 318.795 28.8881 328.472C33.7175 410.51 32.8905 393.075 32.8905 402.584C140.848 384.655 136.601 388.514 213.582 380.343C213.582 335.664 213.892 370.962 212.895 275.971C212.882 274.71 212.713 273.917 211.153 273.56C208.071 272.848 205.037 271.906 201.992 271.039Z" fill="white"/>
<path d="M104.794 421.804C99.8529 419.212 100.893 408.122 112.482 407.208C121.139 406.529 129.815 405.966 138.488 405.348C147.408 404.717 148.831 413.653 142.509 417.566C136.186 421.476 109.741 424.395 104.794 421.804ZM118.276 419.96C125.836 419.002 134.813 418.331 141.721 415.64C142.43 415.422 143.068 415.036 143.577 414.522C144.085 414.008 144.447 413.382 144.629 412.701C144.811 412.02 144.806 411.306 144.616 410.626C144.426 409.947 144.056 409.325 143.541 408.817C141.065 406.443 140.03 407.218 112.333 409.227C104.217 409.815 101.109 419.459 109.187 419.944C111.863 420.105 114.541 419.96 118.276 419.96Z" fill="white"/>
<path d="M113.467 39.6367C113.467 39.1472 113.503 31.8481 121.248 31.8481C132.34 31.8481 135.515 50.9695 123.945 50.9695C121.633 50.9671 113.467 50.3502 113.467 39.6367ZM122.171 34.2224C120.473 34.3789 118.895 35.1211 117.743 36.3064C116.591 37.4917 115.945 39.0362 115.93 40.6427C115.93 40.8189 116.091 48.8718 123.612 48.8718C132.779 48.8718 129.809 34.2224 122.171 34.2224Z" fill="white"/>
<path d="M464.706 406.784C463.479 406.867 462.246 406.857 461.022 406.753C438.396 403.065 415.875 398.825 393.145 395.798C361.22 391.543 343.2 390.902 282.048 383.584C277.577 383.047 277.599 382.906 277.612 378.635C277.85 294.11 279.9 76.9274 282.534 74.1419C283.314 73.3219 285.416 73.623 286.939 73.4639C371.148 64.6277 376.542 65.0292 443.868 57.6861C451.371 56.8686 458.809 55.4832 466.26 54.3279C467.866 54.0831 469.439 53.667 471.249 53.2876C471.383 55.0548 471.466 56.4696 471.617 57.8746C475.501 94 473.065 130.172 472.755 166.329C471.975 257.138 473.988 267.712 468.553 346.04C466.683 373.083 465.545 400.866 464.706 406.784ZM282.141 294.679C281.383 295.518 280.945 296.572 280.902 297.672C280.886 301.29 280.319 372.112 280.516 375.786C289.373 367.559 297.68 359.3 308.514 353.83C304.947 347.611 300.931 342.528 304.312 328.486C312.437 294.743 331.07 264.846 330.221 264.446C330.216 264.946 307.296 268.342 282.139 294.673L282.141 294.679ZM371.014 168.378C370.459 168.059 369.811 167.911 369.163 167.955C368.515 167.999 367.897 168.232 367.397 168.623C363.888 170.808 360.299 171.034 358.002 168.75C357.224 168.057 356.283 167.55 355.254 167.27C354.227 166.99 353.141 166.946 352.092 167.142C353.392 170.813 352.328 172.27 348.171 172.659C347.846 172.753 347.547 172.913 347.296 173.129C347.045 173.344 346.845 173.609 346.715 173.905C345.694 176.353 344.355 179.008 341.371 178.8C339.236 178.743 337.164 179.486 335.61 180.866C334.973 181.29 334.122 181.434 333.467 181.845C333.016 182.129 332.427 182.697 332.446 183.106C333.541 204.698 331.807 220.555 346.21 229.224C350.261 231.405 354.456 233.338 358.771 235.009C360.245 235.657 361.508 236.394 361.485 238.13C361.42 243.158 361.363 248.202 361.149 253.23C360.988 257.089 349.875 259.616 346.8 260.526C350.441 262.56 352.881 266.074 365.084 266.4C372.338 266.566 379.55 265.342 386.286 262.806C389.788 261.515 393.119 259.828 396.517 258.313C396.283 257.505 385.679 254.851 385.415 254.784C384.726 254.645 384.114 254.264 383.711 253.719C383.306 253.175 383.139 252.506 383.239 251.847C383.43 235.466 383.276 240.94 383.555 236.182C375.333 238.782 373.933 238.925 372.052 237.161C373.092 236.626 374.028 236.076 375.032 235.666C377.372 234.707 379.754 233.911 382.032 232.859C395.869 226.466 399.92 218.326 403.357 204.062C406.138 205.322 408.699 206.538 411.532 204.833C411.399 204.676 411.293 204.5 411.211 204.315C409.638 201.683 411.471 201.431 413.237 202.157C414.117 202.267 414.477 203.689 416.202 202.377C423.82 196.58 416.102 186.406 408.699 190.667C408.233 190.956 407.711 191.152 407.16 191.242C406.61 191.33 406.046 191.311 405.507 191.185C404.965 191.061 404.458 190.83 404.016 190.51C403.574 190.19 403.207 189.786 402.939 189.325C402.442 188.244 402.083 187.112 401.868 185.953C396.894 186.457 395.789 185.385 394.846 178.798C391.908 178.798 388.9 178.942 386.355 176.448C383.443 173.592 384.015 170.574 384.362 167.103C380.354 169.736 376.664 171.166 371.012 168.376L371.014 168.378ZM467.803 56.7217C464.539 57.456 461.522 58.391 458.441 58.7876C402.549 65.9764 432.64 62.7455 286.991 76.4403C285.171 76.6116 284.413 77.0228 284.363 78.9932C283.977 93.9829 283.221 108.973 283.006 123.977C283.006 124.222 280.75 287.865 281.082 290.037C282.427 290.743 292.962 273.521 322.226 263.008C343.419 255.394 346.988 258.441 356.873 252.702C357.155 252.481 357.382 252.206 357.54 251.896C357.701 251.586 357.785 251.249 357.794 250.904C357.794 247.308 357.443 243.714 357.627 240.135C357.729 238.177 356.907 237.567 355.217 236.932C349.587 235.272 344.359 232.577 339.843 229.004C339.561 228.83 339.247 228.712 338.915 228.655C338.584 228.6 338.246 228.606 337.918 228.673C335.352 228.981 332.748 228.643 330.366 227.694C327.986 226.744 325.917 225.216 324.369 223.268C322.107 220.115 321.209 216.27 321.86 212.515C322.51 208.761 324.657 205.382 327.863 203.066C328.469 202.501 328.829 201.743 328.87 200.939C329.005 194.965 329.029 188.976 329.02 183.003C329.016 182.699 328.944 182.399 328.81 182.122C328.675 181.845 328.482 181.598 328.24 181.395C323.004 177.934 326.127 175.009 325.899 172.475C325.572 170.501 325.36 168.511 325.262 166.515C325.204 161.249 326.356 156.033 328.643 151.227C327.191 151.232 325.78 150.764 324.651 149.903C323.522 149.042 322.742 147.84 322.447 146.501C321.84 143.284 324.558 141.786 326.833 140.227C322.479 132.377 325.245 126.924 330.52 125.081C329.846 122.825 329.802 120.444 330.394 118.169C330.988 115.893 332.195 113.8 333.9 112.093C335.298 110.151 337.301 108.664 339.635 107.837C341.969 107.01 344.515 106.883 346.93 107.475C348.75 100.964 353.98 98.5992 360.076 97.8429C363.047 97.5983 366.04 97.952 368.855 98.8805C371.67 99.809 374.243 101.291 376.401 103.228C380.387 98.822 383.885 98.2982 389.012 101.208C392.673 103.082 395.592 106.018 397.334 109.58C401.99 106.853 405.916 107.411 410.043 111.327C412.537 113.744 414.111 116.87 414.516 120.217C415.036 123.747 412.91 126.302 410.398 128.965C412.021 128.462 413.77 128.445 415.404 128.916C417.039 129.388 418.478 130.324 419.522 131.597C420.658 132.772 421.291 134.299 421.304 135.887C421.317 137.475 420.705 139.012 419.591 140.203C420.859 140.732 421.986 141.518 422.896 142.504C423.805 143.491 424.472 144.654 424.849 145.91C425.226 147.167 425.304 148.486 425.079 149.774C424.853 151.062 424.329 152.288 423.544 153.364C424.765 154.263 425.675 155.482 426.16 156.868C426.646 158.254 426.685 159.744 426.271 161.15C425.896 162.507 425.001 163.686 423.759 164.459C422.517 165.233 421.015 165.548 419.542 165.343C419.542 174.108 414.828 174.788 415.121 176.113C415.881 179.89 415.463 183.795 413.913 187.352C423.61 189.606 425.133 197.755 417.381 205.445C418.839 207.423 419.752 209.712 420.036 212.107C420.32 214.499 419.964 216.92 419.002 219.152C418.222 221.593 416.518 223.68 414.213 225.02C411.909 226.358 409.163 226.856 406.493 226.417C404.012 225.703 401.599 224.78 399.294 223.66C396.086 227.794 392.053 231.301 387.422 233.983C386.121 234.717 386.661 236.543 386.802 248.5C386.836 251.48 386.767 251.576 389.923 252.267C420.636 259.017 431.392 259.208 467.744 279.347C467.744 262.323 468.401 172.627 468.9 134.152C469.437 93.4126 469.914 97.6275 467.803 56.7217ZM432.408 267.588C428.724 266.092 435.724 268.259 405.867 260.053C398.691 258.08 403.526 260.759 390.811 265.901C381.039 270.188 370.158 271.724 359.48 270.329C344.071 268.024 344.097 260.854 341.761 261.203C338.016 261.764 334.663 262.639 332.953 266.531C327.438 279.081 315.269 300.709 308.338 329.845C307.35 333.222 307.097 336.753 307.595 340.227C308.091 343.698 309.331 347.04 311.236 350.05C318.938 361.899 319.382 367.298 321.684 382.992C322.302 387.206 321.361 380.83 434.404 397.87C440.013 382.939 443.461 367.625 447.951 352.698C442.733 350.499 437.991 347.411 433.967 343.588C421.152 330.991 419.689 311.901 421.542 294.635C422.248 284.807 426.03 275.396 432.408 267.588ZM447.165 348.143C444.649 343.909 443.634 342.758 442.507 340.61C442.221 340.06 442.659 339.174 442.768 338.436C443.487 338.593 444.393 338.544 444.911 338.94C445.91 339.684 446.766 340.586 447.44 341.604C460.963 362.866 458.499 359.374 462.411 367.121C462.946 364.047 461.835 374.984 467.484 286.28C467.552 285.758 467.445 285.227 467.183 284.762C466.919 284.297 466.511 283.92 466.013 283.679C457.151 278.388 447.876 273.741 438.264 269.778C437.733 269.468 437.098 269.362 436.487 269.487C435.878 269.609 435.343 269.952 434.996 270.439C425.757 280.038 424.684 298.369 425.4 311.356C425.566 320.857 428.681 330.106 434.359 337.961C437.324 342.587 441.82 346.167 447.158 348.151L447.165 348.143ZM460.911 402.586C461.982 378.233 462.17 378.745 461.501 377.034C458.82 369.454 455.435 362.113 451.384 355.095C447.6 370.099 444.363 384.648 438.422 398.58C445.884 399.926 453.285 401.231 460.905 402.592L460.911 402.586ZM318.067 384.302C316.426 374.701 315.986 365.15 310.248 356.887C299.934 363.8 290.439 371.737 281.929 380.561C294.21 381.833 306.052 383.061 318.058 384.308L318.067 384.302ZM401.446 147.516C400.85 148.327 400.132 149.054 399.32 149.675C398.715 149.995 398.236 150.491 397.954 151.087C397.672 151.684 397.605 152.35 397.759 152.987C398.002 155.845 397.072 158.683 395.159 160.915C394.281 161.791 393.323 162.592 392.298 163.309C400.938 169.205 407.555 176.108 410.762 185.929C411.129 185.13 411.447 184.312 411.716 183.48C412.336 181.251 412.457 178.925 412.071 176.649C411.683 174.374 410.799 172.199 409.471 170.263C409.048 169.554 408.68 168.818 408.365 168.06C411.701 168.234 412.353 170.914 414.009 172.615C416.857 168.123 417.188 165.027 414.789 161.392C411.898 157.055 408.71 150.833 401.439 147.524L401.446 147.516ZM372.334 166.344C373.656 166.454 374.895 166.657 376.117 166.657C377.309 166.745 378.508 166.571 379.615 166.15C380.723 165.729 381.713 165.072 382.506 164.231C383.3 163.39 383.876 162.387 384.188 161.301C384.5 160.215 384.541 159.076 384.307 157.973C383.486 152.098 380.705 146.611 374.726 144.608C368.749 142.606 365.396 143.835 365.702 150.63C365.732 151.83 366.073 153.006 366.69 154.057C371.831 162.063 375.058 161.83 372.334 166.344ZM391.223 131.462L391.626 130.943C381.338 122.956 361.285 120.736 359.287 131.677C359.09 133.172 359.057 134.682 359.187 136.184C359.261 137.919 362.854 139.571 364.243 138.455C370.947 133.07 378.952 134.734 380.322 133.868C383.564 131.934 387.404 131.086 391.223 131.462ZM366.239 139.958C367.494 141.644 367.509 141.757 369.588 141.378C377.962 139.845 388.783 149.55 387.22 162.009C388.581 161.5 389.816 160.729 390.844 159.746C391.871 158.763 392.668 157.589 393.189 156.299C393.706 155.01 393.934 153.632 393.854 152.255C393.776 150.878 393.394 149.532 392.731 148.302C388.063 138.276 377.71 134.742 366.239 139.958ZM340.799 151.763C340.471 153.23 340.504 154.748 340.89 156.203C341.275 157.657 342.008 159.01 343.031 160.16C344.052 161.31 345.339 162.227 346.791 162.842C348.243 163.457 349.825 163.753 351.418 163.71C357.063 163.955 360.96 164.05 364.631 160.039C364.982 159.652 365.238 159.196 365.375 158.703C365.513 158.211 365.531 157.696 365.425 157.196C365.321 156.697 365.095 156.226 364.77 155.82C364.443 155.414 364.025 155.083 363.541 154.852C361.569 153.986 359.432 153.502 357.256 153.429C355.083 153.356 352.913 153.696 350.883 154.429C350.035 154.886 349.034 155.022 348.085 154.807C347.136 154.593 346.308 154.045 345.775 153.276C344.734 152.16 343.787 152.302 340.799 151.763ZM405.294 208.931C404.538 213.184 403.186 217.322 401.274 221.241C407.806 224.455 413.161 222.783 415.476 216.835C415.987 215.462 416.174 214.001 416.022 212.553C415.873 211.105 415.389 209.706 414.605 208.451C414.369 208.213 414.076 208.027 413.751 207.913C413.426 207.799 413.075 207.756 412.73 207.788C410.346 208.052 407.986 208.504 405.308 208.931H405.294ZM356.86 137.799C356.069 135.798 355.778 133.651 356.017 131.528C356.255 129.404 357.014 127.361 358.234 125.561C353.455 127.088 349.171 129.742 345.79 133.268C344.186 134.75 342.97 136.561 342.238 138.561C341.505 140.56 341.278 142.693 341.572 144.789C341.581 145.677 341.804 146.552 342.22 147.348C342.639 148.145 343.239 148.843 343.982 149.391C344.468 142.954 346.982 138.492 356.86 137.799ZM363.123 151.195C362.85 149.645 362.958 148.057 363.437 146.552C363.916 145.047 364.755 143.665 365.888 142.511C362.7 141.114 359.148 140.632 355.672 141.125C353.713 141.34 351.828 141.953 350.146 142.922C347.068 145.147 346.728 148.642 348.637 152.678C352.976 148.468 357.982 149.731 363.123 151.195ZM339.457 160.842C339.375 160.67 339.121 160.227 338.902 159.769C338.109 158.448 337.667 156.965 337.615 155.447C337.563 153.93 337.901 152.423 338.601 151.056C338.961 150.529 339.119 149.904 339.054 149.282C338.987 148.66 338.699 148.077 338.235 147.629C337.654 148.152 337.002 148.598 336.293 148.953C334.271 149.644 332.524 150.904 331.289 152.562C330.056 154.22 329.393 156.195 329.393 158.22C329.031 161.607 328.688 164.98 328.287 168.654C332.31 165.84 335.812 163.38 339.444 160.842H339.457ZM329.343 205.51C325.123 210.285 324.272 215.093 326.861 220.123C328.682 223.635 332.154 224.739 336.458 225.181C331.371 219.333 330.723 212.415 329.33 205.51H329.343ZM396.829 147.729C398.041 146.477 398.739 144.861 398.802 143.168C398.862 141.476 398.284 139.819 397.165 138.492C395.733 136.759 393.73 135.522 391.472 134.975C389.214 134.428 386.826 134.6 384.682 135.466C387.467 136.651 389.975 138.345 392.059 140.45C394.142 142.555 395.759 145.03 396.816 147.729H396.829ZM359.38 166.848C361.446 167.225 363.585 166.984 365.498 166.158C367.41 165.332 369 163.963 370.043 162.244C369.308 161.51 368.571 160.749 367.767 159.943C366.187 163.507 365.167 164.342 359.374 166.848H359.38Z" fill="white"/>
<path d="M384.358 423.098C370.024 421.105 352.212 422.396 348.252 413.78C347.775 412.905 347.546 411.928 347.587 410.943C347.626 409.96 347.936 409.001 348.486 408.163C349.034 407.324 349.806 406.635 350.721 406.158C351.637 405.682 352.667 405.436 353.713 405.444C357.686 405.407 353.811 405.513 381.128 407.157C393.072 407.879 394.392 418.926 389.386 421.721C387.784 422.394 386.091 422.857 384.358 423.098ZM356.156 407.226C348.276 406.761 347.775 413.248 351.904 415.438C353.198 416.081 354.569 416.575 355.989 416.907C365.449 419.196 375.199 420.23 384.96 419.981C389.934 419.934 389.873 416.77 388.978 413.739C388.555 412.303 386.377 409.537 380.89 409.121C358.62 407.432 357.426 407.447 356.156 407.226Z" fill="white"/>
<path d="M372.802 31.7722C377.043 31.7722 381.102 34.9811 380.656 38.6257C380.396 51.5055 371.112 51.0429 370.773 51.0429C369.001 51.0429 362.909 50.9792 362.909 43.0071C362.907 36.2515 368.342 31.7722 372.802 31.7722ZM370.524 48.8889C376.655 48.8889 378.096 43.504 378.096 40.6157C378.166 39.0068 377.561 37.4368 376.413 36.2437C375.264 35.0507 373.662 34.33 371.955 34.237C364.118 34.237 361.507 48.8889 370.513 48.8889H370.524Z" fill="white"/>
<path d="M69.9793 69.1728C66.2188 68.2524 38.1787 65.9467 37.8926 65.9271C36.3686 65.817 36.7613 72.438 36.7379 111.082C36.7379 114.125 36.7197 114.218 39.8847 114.156C49.8504 113.963 59.8134 113.713 69.792 113.478C72.4707 113.415 72.8686 113.148 72.8894 110.673C72.9917 98.0808 73.0697 85.4874 73.1235 72.8933C73.1235 70.12 72.8452 69.8752 69.9793 69.1728ZM40.5557 112.044C40.5557 101.898 39.2944 101.585 45.5619 97.5292C46.1267 97.2094 46.7276 96.95 47.3537 96.7558C47.4602 96.714 47.5785 96.7085 47.6888 96.7403C47.7989 96.7719 47.8938 96.839 47.9571 96.9296C48.7264 98.2042 49.1198 99.6491 49.0964 101.115C49.0732 102.581 48.6339 104.014 47.8245 105.266C47.3407 105.824 45.8038 106.072 46.1158 106.072C46.2147 105.567 46.3343 105.063 46.4331 104.559C45.913 104.699 45.1328 104.699 44.9273 105.031C43.8273 106.87 41.042 111.557 40.5557 112.044ZM46.4513 111.667C45.1272 111.803 43.7965 111.877 42.4645 111.887C43.0306 110.691 43.7087 109.544 44.4904 108.461C44.4904 108.461 46.5007 111.572 46.4513 111.67V111.667ZM61.6729 110.247C61.5012 110.708 62.3126 110.294 47.5046 111.178C47.4003 111.184 47.2967 111.159 47.2094 111.105C47.1221 111.051 47.0558 110.972 47.0209 110.879C46.5007 109.445 46.2849 109.241 46.6516 108.972C51.6838 105.264 52.4458 102.319 50.0844 95.2651C51.1247 95.0204 51.6448 94.6116 52.529 95.0204C55.4365 96.3372 58.5573 96.9418 61.1709 94.7364C61.5558 95.5882 61.8939 96.205 62.1254 96.8953C62.6455 98.3908 62.955 99.9402 63.5661 101.404C64.0774 102.431 64.27 103.574 64.122 104.7C63.9738 105.825 63.4909 106.889 62.7287 107.768C62.2465 108.54 61.8904 109.376 61.6729 110.247ZM49.918 83.6729C50.1496 83.5686 50.4093 83.5323 50.6631 83.5691C50.9168 83.6058 51.1528 83.7137 51.3405 83.8785C51.5689 84.1192 51.8526 84.3076 52.1701 84.4298C52.4876 84.552 52.8305 84.6042 53.1725 84.583C53.5147 84.5618 53.8473 84.4676 54.1449 84.3072C54.4426 84.1471 54.6975 83.925 54.8904 83.6582C55.4989 82.6791 56.9709 82.1896 58.0112 81.4993C58.5651 82.0501 58.9162 82.7232 59.4363 82.8554C60.0353 82.9186 60.5867 83.1921 60.9807 83.6213C61.3747 84.0506 61.5818 84.604 61.561 85.1709C61.6677 86.9675 62.1306 88.7151 60.2607 89.7113C58.6353 90.5754 58.1802 91.2558 58.7549 93.6276C59.5351 96.8904 54.4821 94.7315 54.4821 94.7315C54.066 94.7634 54.248 91.8775 54.248 91.8775C54.2983 91.7241 54.3156 91.5628 54.2987 91.4031C54.2816 91.2434 54.2309 91.0884 54.1492 90.9474C53.4418 90.1152 53.7097 90.4138 52.8931 89.4666C52.3617 88.5262 51.9623 87.5249 51.7046 86.4877C51.585 86.243 50.061 86.079 49.7099 85.5576C49.2106 84.811 49.4473 83.7218 49.918 83.6729ZM49.2314 82.5543C49.1653 81.7629 49.1428 80.9688 49.1638 80.1751C50.209 80.4809 51.3186 80.5388 52.3933 80.3436C53.4683 80.1486 54.4752 79.7064 55.3247 79.0565C55.7588 78.6853 56.3151 78.4656 56.9005 78.434C57.486 78.4024 58.0653 78.5607 58.5417 78.8827C59.8004 79.617 61.3868 78.7604 62.3256 78.8827C63.4465 79.0296 62.7599 81.5311 62.6949 81.4822C61.6789 80.9096 60.4631 80.7399 59.3141 81.0098C58.7675 81.2427 58.175 81.3647 57.5749 81.3676C56.9748 81.3706 56.381 81.2546 55.8318 81.0269C55.6784 80.9461 49.4134 82.6497 49.2314 82.5543ZM67.5399 111.021L64.4191 110.752C64.345 110.744 64.2737 110.721 64.2104 110.685C64.1469 110.648 64.0932 110.598 64.0531 110.539C64.0128 110.48 63.9872 110.413 63.9781 110.344C63.969 110.274 63.9766 110.204 64.0004 110.137L64.8378 107.947C64.8667 107.872 64.9152 107.806 64.9791 107.754C65.0428 107.703 65.1196 107.667 65.2021 107.651C65.2845 107.636 65.3699 107.64 65.4501 107.665C65.5303 107.689 65.6024 107.732 65.6596 107.79L67.9378 110.238C68.0065 110.306 68.0516 110.392 68.067 110.485C68.0826 110.578 68.0678 110.673 68.0247 110.758C67.9816 110.843 67.9122 110.913 67.8257 110.96C67.7391 111.007 67.6396 111.028 67.5399 111.021ZM69.2823 108.451C67.8078 107.095 66.0939 106.466 66.302 104.023C66.0894 102.16 65.5341 100.346 64.661 98.6625C64.4269 97.9527 64.2085 97.2453 63.8808 96.2148C70.0989 98.7164 69.2927 101.933 69.2927 108.451H69.2823ZM69.9689 75.0986C69.9143 77.5634 69.5164 94.0144 69.2485 97.4338C63.9146 92.23 59.0878 93.3829 59.1658 92.2178C59.2129 91.8245 59.4175 91.4631 59.738 91.2069C60.1903 90.8724 60.6664 90.5672 61.1631 90.2939C61.4967 90.1115 61.7881 89.8684 62.0209 89.5789C62.2534 89.2893 62.4225 88.9591 62.5181 88.6074C62.6797 87.3405 62.6191 86.0571 62.3386 84.8086C62.0994 83.69 62.6507 84.0743 62.9758 83.012C63.419 81.5144 63.4627 79.9371 63.1036 78.4197C62.7443 76.9024 61.993 75.4917 60.9161 74.3129C60.0943 73.4293 59.0566 74.8025 58.6379 74.0681C58.4921 73.7434 58.2539 73.4625 57.9498 73.2567C57.6458 73.0507 57.2873 72.9275 56.9137 72.9006C54.5341 73.0817 55.036 73.701 53.8995 73.9262C52.9607 74.1122 52.0193 73.3387 51.2703 73.8625C50.3783 74.4867 50.4719 76.0092 49.9466 76.8414C48.0819 79.8031 48.6931 80.2069 48.6749 81.2472C48.6861 81.9995 48.8688 82.7407 49.2106 83.4208C49.3848 83.7855 47.9311 85.3642 50.5993 86.7007C51.3015 87.0507 51.2417 88.5242 51.6396 89.1484C52.1859 89.8213 52.7793 90.4591 53.4158 91.0576C53.9646 91.7527 53.3664 92.6632 53.2312 93.1063C48.8075 93.7586 44.6469 95.5046 41.1746 98.1656C40.8547 98.4324 40.6727 69.5571 40.6727 69.5571C40.6708 69.4912 40.6842 69.4257 40.7121 69.3651C40.7401 69.3047 40.7819 69.2509 40.8346 69.2072C40.8873 69.1638 40.9495 69.1318 41.0169 69.1136C41.084 69.0952 41.1549 69.0914 41.224 69.1018C69.8805 73.2408 70.1015 69.5277 69.9793 75.0986H69.9689Z" fill="white"/>
<path d="M188.074 125.443C186.298 127.475 184.324 129.335 182.381 131.242C180.821 132.772 179.261 131.511 180.488 129.871C182.491 127.361 184.673 124.981 187.018 122.748C187.856 121.644 192.729 119.013 188.074 125.443Z" fill="white"/>
<path d="M191.372 148.99C189.371 148.903 187.381 148.65 185.427 148.233C184.272 147.932 182.884 145.741 185.747 145.741C187.89 145.776 190.025 145.992 192.126 146.388C197.988 146.703 196.495 149.435 191.372 148.99Z" fill="white"/>
<path d="M191.122 137.515C188.646 137.91 186.217 138.533 183.871 139.376C182.883 139.865 181.7 138.751 182.766 137.662C183.056 137.321 183.437 137.059 183.871 136.903C186.3 136.345 188.797 136.03 191.205 135.359C195.478 134.189 194.404 137.231 191.122 137.515Z" fill="white"/>
<path d="M177.941 363.612C177.463 375.763 167.869 380.398 161.178 375.361C157.829 372.467 155.832 368.443 155.622 364.167C155.412 359.892 157.006 355.713 160.057 352.539C167.11 346.179 177.46 351.927 177.941 363.612ZM163.924 363.631C163.791 363.582 163.641 363.535 163.505 363.488C163.656 362.841 163.724 361.656 163.942 361.628C165.613 361.367 167.312 361.301 169 361.436C170.506 361.595 170.173 362.905 170.054 363.884C169.703 366.77 172.543 365.817 174.056 365.742C175.429 365.677 175.822 364.985 175.447 363.835C174.574 361.142 173.07 358.911 169.869 358.542C167.629 358.281 165.363 358.27 163.12 358.509C161.91 358.666 160.793 359.209 159.955 360.045C159.118 360.883 158.61 361.964 158.517 363.111C158.351 363.916 158.65 365.491 159.069 365.601C160.35 365.903 161.693 365.893 162.97 365.571C163.422 365.495 163.607 364.322 163.924 363.631Z" fill="#A66DFF"/>
<path d="M88.0632 386.988C83.2633 386.782 78.7343 384.836 75.4239 381.558C72.1133 378.282 70.2779 373.925 70.3017 369.403C70.3256 364.881 72.2069 360.543 75.5518 357.297C78.8966 354.05 83.446 352.147 88.2479 351.986C90.6587 352.063 93.0296 352.588 95.2241 353.53C97.4184 354.474 99.3929 355.816 101.033 357.481C102.674 359.145 103.949 361.097 104.784 363.229C105.619 365.358 105.997 367.622 105.898 369.891C105.934 374.382 104.076 378.702 100.734 381.907C97.3906 385.111 92.8345 386.939 88.0632 386.988ZM103.147 369.744C103.06 366.994 102.114 364.328 100.429 362.078C98.7434 359.831 96.3922 358.099 93.6685 357.099C90.9445 356.098 87.9683 355.876 85.1102 356.457C82.2523 357.036 79.6391 358.397 77.5961 360.365C75.5533 362.333 74.1708 364.824 73.621 367.527C73.0714 370.229 73.3787 373.024 74.5048 375.563C75.6309 378.103 77.5261 380.275 79.954 381.809C82.3821 383.341 85.2357 384.169 88.1595 384.185C90.1507 384.165 92.1183 383.773 93.9491 383.037C95.78 382.298 97.4383 381.23 98.8294 379.887C100.221 378.547 101.317 376.96 102.056 375.221C102.795 373.479 103.162 371.618 103.137 369.744H103.147Z" fill="white"/>
<path d="M146.658 366.244C146.169 379.357 132.843 385.417 124.168 377.83C120.914 374.786 118.969 370.719 118.703 366.409C118.438 362.099 119.871 357.848 122.73 354.47C124.031 352.955 125.705 351.758 127.608 350.989C129.511 350.218 131.585 349.895 133.65 350.048C135.715 350.203 137.709 350.827 139.46 351.87C141.21 352.914 142.664 354.342 143.696 356.033C145.748 359.08 146.78 362.638 146.658 366.244ZM144.549 366.372C144.606 353.889 132.625 348.749 125.208 355.686C122.714 358.262 121.282 361.593 121.171 365.077C121.061 368.561 122.279 371.967 124.605 374.68C125.601 375.91 126.891 376.906 128.371 377.581C129.85 378.258 131.478 378.599 133.122 378.574C134.767 378.55 136.383 378.164 137.839 377.444C139.296 376.726 140.553 375.694 141.509 374.435C143.419 372.126 144.485 369.297 144.549 366.372Z" fill="white"/>
<path d="M461.054 100.655C461 103.223 460.647 105.795 460.367 108.36C460.263 109.322 459.914 110.105 458.595 110.269C434.385 113.241 436.535 113.664 430.408 112.632C430.005 112.503 429.643 112.284 429.35 111.993C429.058 111.702 428.846 111.348 428.733 110.962C425.948 85.2614 426.6 92.9154 427.862 69.5571C427.831 68.9196 428.061 68.2953 428.503 67.8119C428.945 67.3282 429.567 67.0219 430.241 66.9552C438.583 65.4498 446.885 63.7732 455.259 62.4955C460.5 61.7024 461.275 62.4318 461.405 67.3909C461.562 73.2555 461.163 95.4316 461.054 100.655ZM456.074 89.5204C456.46 81.6731 456.828 73.9017 457.214 66.0226C448.632 67.222 440.249 68.3871 431.576 69.5864V93.3853C432.361 92.735 433.219 92.1692 434.138 91.6989C436.775 90.6708 436.5 92.7098 435.36 93.4637C432.798 95.1599 430.956 96.8219 431.641 100.317C431.968 103.402 432.007 106.509 431.758 109.601L456.326 106.243C456.326 101.94 456.261 97.9992 456.36 94.0609C456.425 93.4732 456.289 92.8815 455.968 92.3734C455.647 91.8651 455.162 91.4671 454.583 91.2387C452.097 89.9732 451.983 89.0651 456.074 89.5204Z" fill="white"/>
<path d="M397.688 370.06C397.82 366.972 398.917 363.988 400.839 361.481C402.763 358.976 405.429 357.059 408.502 355.97C411.577 354.883 414.924 354.67 418.124 355.362C421.328 356.055 424.24 357.618 426.503 359.859C428.765 362.101 430.274 364.92 430.844 367.965C431.414 371.011 431.017 374.146 429.704 376.979C428.393 379.812 426.221 382.219 423.464 383.898C420.706 385.579 417.483 386.456 414.2 386.421C411.974 386.368 409.779 385.903 407.744 385.052C405.709 384.202 403.873 382.982 402.339 381.462C400.804 379.943 399.606 378.154 398.806 376.198C398.009 374.242 397.629 372.155 397.688 370.06ZM426.592 370.501C426.065 368.893 425.068 367.457 423.714 366.358C422.361 365.261 420.706 364.543 418.937 364.292C415.643 363.833 412.321 363.576 408.99 363.517C407.501 363.468 406.029 363.843 404.772 364.594C403.513 365.346 402.525 366.438 401.94 367.727C400.215 371.154 401.608 371.492 405.123 371.935C408.472 372.359 408.68 372.235 408.639 369.034C408.617 367.443 409.358 366.735 410.867 366.876C413.094 367.084 415.305 367.453 417.515 367.87C418.673 368.088 418.837 368.877 418.571 369.917C417.791 372.946 418.014 373.259 421.282 373.526C425.441 373.868 428.055 373.917 426.592 370.501Z" fill="#D0F500"/>
<path d="M363.106 354.313C364.528 353.42 366.121 352.8 367.798 352.488C369.473 352.178 371.198 352.184 372.874 352.504C374.547 352.824 376.137 353.455 377.55 354.358C378.964 355.262 380.173 356.418 381.109 357.765C383.452 360.981 384.527 364.869 384.143 368.753C383.762 372.636 381.948 376.271 379.016 379.029C377.57 380.424 375.791 381.473 373.825 382.086C371.862 382.7 369.768 382.862 367.724 382.556C365.679 382.25 363.743 381.487 362.077 380.328C360.41 379.172 359.064 377.656 358.15 375.908C355.985 372.371 355.291 368.202 356.208 364.212C357.122 360.22 359.582 356.694 363.106 354.313ZM371.981 354.913C369.963 354.517 367.865 354.687 365.95 355.401C364.032 356.116 362.38 357.344 361.199 358.933C359.131 361.322 357.983 364.298 357.935 367.378C357.888 370.458 358.945 373.462 360.939 375.908C361.797 377.038 362.894 377.991 364.162 378.703C365.429 379.416 366.84 379.875 368.305 380.051C369.77 380.226 371.257 380.116 372.674 379.727C374.092 379.335 375.409 378.674 376.543 377.783C384.978 371.282 382.737 357.036 371.981 354.913Z" fill="white"/>
<path d="M343.061 356.944C344.852 359.99 345.578 363.486 345.138 366.941C344.696 370.396 343.111 373.632 340.606 376.191C334.625 381.772 325.403 379.547 322.503 371.728C316.455 355.445 334.664 344.086 343.061 356.944ZM341.705 359.104C341.193 357.811 340.348 356.659 339.245 355.753C338.142 354.845 336.816 354.213 335.385 353.913C333.955 353.611 332.468 353.652 331.06 354.032C329.651 354.409 328.366 355.113 327.319 356.08C325.043 358.27 323.615 361.118 323.266 364.165C322.917 367.212 323.665 370.282 325.392 372.879C333.129 383.269 347.903 372.3 341.705 359.104Z" fill="white"/>
<path d="M365.1 187.195C365.266 191.101 364.98 195.012 364.244 198.858C363.143 206.1 357.788 209.369 364.211 211.705C366.573 212.564 367.544 214.693 364.679 215.079C363.63 215.14 362.577 214.981 361.602 214.611C360.624 214.242 359.749 213.671 359.036 212.941C358.325 212.211 357.796 211.34 357.488 210.393C357.181 209.445 357.103 208.445 357.261 207.466C357.406 206.526 357.729 205.618 358.214 204.786C361.075 200.38 360.616 195.417 362.352 183.948C362.475 183.142 364.25 176.935 365.1 187.195Z" fill="white"/>
<path d="M380.27 218.23C375.572 226.242 361.656 223.745 363.626 220.278C364.306 219.085 372.557 224.828 379.49 214.683C380.27 213.753 383.538 210.65 380.27 218.23Z" fill="white"/>
<path d="M386.885 180.464C386.987 180.739 386.969 181.04 386.839 181.304C386.711 181.568 386.477 181.774 386.191 181.88C385.903 181.986 385.582 181.983 385.298 181.872C385.012 181.761 384.782 181.551 384.659 181.284C382.143 179.165 379.547 175.584 376.018 177.202C373.877 178.181 372.872 176.161 375.047 175.17C380.396 172.725 385.764 176.891 386.885 180.464Z" fill="white"/>
<path d="M378.612 186.408C379.538 186.528 380.391 186.944 381.033 187.583C381.674 188.221 382.067 189.045 382.147 189.922C382.156 190.812 381.796 191.668 381.141 192.309C380.487 192.951 379.59 193.325 378.645 193.349C374.553 193.308 374.397 186.483 378.612 186.408Z" fill="white"/>
<path d="M356.658 176.413C354.242 176.6 351.995 177.651 350.38 179.351C349.106 181.935 348.055 180.344 348.521 178.232C349.242 174.955 355.167 172.903 358.468 174.213C360.631 174.428 362.217 177.123 356.658 176.413Z" fill="white"/>
<path d="M355.95 190.426C356.013 190.812 355.985 191.205 355.872 191.581C355.757 191.956 355.56 192.303 355.291 192.601C355.022 192.896 354.689 193.137 354.314 193.302C353.939 193.468 353.531 193.555 353.117 193.559C352.703 193.565 352.292 193.486 351.912 193.329C351.533 193.172 351.195 192.939 350.92 192.648C350.645 192.358 350.436 192.015 350.315 191.642C350.192 191.271 350.155 190.877 350.205 190.49C350.211 185.642 355.974 186.08 355.95 190.426Z" fill="white"/>
<path d="M132.979 215.376C130.803 215.74 128.561 215.478 126.543 214.632C124.526 213.783 122.824 212.384 121.659 210.618C119.592 208.046 118.209 205.047 117.622 201.869C116.608 195.505 123.084 199.154 130.667 200.829C133.98 201.563 137.333 202.12 140.698 202.626C143.629 203.067 144.672 204.325 143.613 206.93C142.566 208.957 141.078 210.758 139.247 212.213C137.415 213.667 135.28 214.744 132.979 215.376ZM121.708 202.579C122.003 204.501 122.883 206.298 124.241 207.758C125.599 209.216 127.378 210.273 129.362 210.801C130.958 210.971 132.572 210.71 134.018 210.053C135.464 209.394 136.683 208.364 137.533 207.081C132.295 205.59 126.967 204.074 121.708 202.579Z" fill="white"/>
<path d="M142.791 195.107C139.894 196.868 137.458 195.921 139.931 192.792C140.903 191.452 141.517 189.91 141.718 188.299C141.919 186.687 141.702 185.054 141.085 183.539C137.465 172.035 133.023 159.796 132.797 158.367C132.714 157.863 133.013 156.964 133.382 156.822C133.689 156.761 134.008 156.775 134.307 156.863C134.606 156.951 134.876 157.111 135.091 157.327C138.965 165.486 142.351 173.842 145.233 182.357C146.281 184.458 146.608 186.814 146.171 189.098C145.733 191.383 144.553 193.482 142.791 195.107Z" fill="white"/>
<path d="M154.598 159.47C154.949 162.434 153.079 161.6 152.32 160.652C151.896 160.124 146.711 156.555 144.029 157.595C142.172 158.494 140.295 156.746 142.154 154.758C146.404 150.218 154.161 155.799 154.598 159.47Z" fill="white"/>
<path d="M121.461 176.839C118.876 176.839 117.576 174.233 117.576 172.434C117.576 170.419 118.293 167.509 120.486 167.509C126.428 167.519 127.094 176.839 121.461 176.839Z" fill="white"/>
<path d="M148.87 175.373C144.274 175.292 144.077 167.355 148.469 166.909C153.215 166.429 153.691 175.461 148.87 175.373Z" fill="white"/>
<path d="M121.841 157.155C120.26 157.189 118.714 157.604 117.351 158.36C115.988 159.116 114.853 160.187 114.055 161.473C112.633 164.026 111.714 161.157 111.845 160.826C112.009 159.328 112.71 157.928 113.831 156.854C115.019 155.733 116.51 154.941 118.143 154.563C119.776 154.185 121.488 154.235 123.092 154.71C126.028 155.309 125.961 157.138 121.841 157.155Z" fill="white"/>
<path d="M91.2804 374.819C87.7799 374.819 84.2587 374.841 80.7114 374.819C80.2574 374.858 79.7994 374.809 79.3675 374.67C78.9354 374.533 78.5392 374.311 78.2044 374.019C77.8693 373.728 77.6034 373.373 77.4238 372.979C77.2441 372.585 77.1548 372.159 77.1615 371.731C77.0081 369.983 76.9951 368.2 76.9951 366.45C76.9598 366.068 77.01 365.683 77.1427 365.32C77.2753 364.957 77.4873 364.624 77.7649 364.345C78.0427 364.063 78.3799 363.841 78.7549 363.69C79.1298 363.539 79.5342 363.466 79.9416 363.472C83.6111 363.337 87.278 363.425 91.2804 363.425V374.819Z" fill="white"/>
<path d="M98.8488 373.685C97.6109 373.052 96.4198 372.347 95.1481 371.839C94.5731 371.541 94.0868 371.113 93.7338 370.592C93.3807 370.07 93.172 369.475 93.1272 368.859C93.0821 368.243 93.202 367.627 93.4761 367.064C93.75 366.503 94.1694 366.015 94.6956 365.646C95.9959 364.93 97.2078 364.069 98.8566 363.013L98.8488 373.685Z" fill="white"/>
<path d="M135.089 371.51H137.198V374.062C134.87 374.158 132.561 374.254 130.132 374.364V371.953L132.961 371.651C132.342 370.77 131.939 370.154 131.505 369.54C127.752 364.243 128.384 365.868 129.425 363.723C129.911 364.118 130.681 364.418 130.85 364.906C131.297 366.201 131.903 367.333 133.479 367.353C135.154 367.386 135.559 366.105 135.973 364.846C136.139 364.357 136.753 364.012 137.18 363.623C138.178 365.354 138.93 364.204 135.957 369.138C135.557 369.801 135.019 370.399 134.55 371.029C134.719 371.194 134.896 371.353 135.089 371.51Z" fill="white"/>
<path d="M135.289 360.761C135.392 361.948 135.369 363.141 135.222 364.322C135.071 365.016 134.218 365.583 133.698 366.197C133.011 365.646 131.797 365.14 131.724 364.528C131.411 361.911 131.292 359.278 131.37 356.647C131.388 356.08 132.67 355.04 133.162 355.133C133.6 355.258 134 355.474 134.332 355.77C134.663 356.066 134.917 356.431 135.071 356.835C135.253 358.134 135.281 359.447 135.157 360.751L135.289 360.761Z" fill="white"/>
<path d="M438.078 91.633C436.312 90.6074 437.946 85.646 438.23 81.0272C438.652 74.1418 447.508 72.9498 449.096 77.7473C450.249 81.2108 451.359 84.6865 452.33 88.1989C452.414 88.6479 452.399 89.1078 452.291 89.5519C452.182 89.9959 451.979 90.4147 451.695 90.7837C450.923 91.9041 449.829 92.7942 448.539 93.3497C447.25 93.9049 445.819 94.1025 444.413 93.9192C442.202 93.43 440.07 92.6608 438.078 91.633ZM444.372 78.626C441.552 78.44 441.112 81.0468 441.559 83.7319C441.819 85.2617 442.599 86.5394 444.406 86.696C445.707 86.8062 446.981 85.1344 447.152 83.4161C447.38 80.988 446.972 78.8022 444.372 78.626ZM443.635 91.1875C442.074 89.7997 440.837 88.6811 439.4 87.3887C439.134 89.8217 440.625 91.1924 443.622 91.1924L443.635 91.1875ZM450.214 90.1155C449.954 89.8487 449.655 89.5647 449.389 89.2955C448.609 90.0298 447.846 90.747 447.094 91.4715C447.31 91.6918 447.529 91.9292 447.763 92.1495C448.554 91.4764 449.382 90.7984 450.201 90.1301L450.214 90.1155Z" fill="#D0F500"/>
<path d="M372.954 376.206C370.407 376 368.045 375.812 365.672 375.606V373.214H368.617C368.049 372.265 367.685 371.635 367.317 370.99C364.309 365.767 364.902 367.278 365.945 365.318C366.378 365.758 367.065 366.138 367.245 366.656C368.01 369.02 369.51 369.893 371.179 368.69C371.699 368.312 371.879 367.521 372.334 367.019C372.806 366.587 373.322 366.201 373.877 365.867C374.672 368.006 375.814 366.531 370.056 373.275C371.432 373.481 372.149 373.589 373.123 373.732C373.055 374.489 373.003 375.262 372.954 376.206Z" fill="white"/>
<path d="M371.864 366.023C371.764 367.206 371.029 368.257 369.738 367.947C369.298 367.757 368.912 367.47 368.617 367.107C368.322 366.743 368.125 366.317 368.045 365.866C367.952 363.551 368.103 361.234 368.498 358.948C368.667 358.521 368.946 358.14 369.308 357.838C369.67 357.534 370.108 357.322 370.578 357.214C371.831 357.067 372.323 358.113 372.234 359.278C371.764 365.475 371.97 364.775 371.864 366.023Z" fill="white"/>
<path d="M335.073 360.355C334.839 363.586 334.637 366.44 334.436 369.412C331.991 369.24 329.731 369.095 327.486 368.922C327.182 368.922 326.881 368.863 326.604 368.747C326.326 368.63 326.077 368.459 325.873 368.247C325.67 368.035 325.516 367.784 325.42 367.513C325.327 367.239 325.295 366.952 325.325 366.668C325.189 359.333 325.286 360.355 335.073 360.355Z" fill="white"/>
<path d="M339.826 369.21C338.283 368.059 335.743 367.933 335.856 365.458C335.962 363.127 336.259 362.778 340.344 360.951C340.164 363.782 339.98 366.499 339.826 369.21Z" fill="white"/>
<path d="M443.624 91.1924C440.624 91.1924 439.133 89.8217 439.387 87.3936C440.824 88.6859 442.066 89.7898 443.624 91.1924Z" fill="white"/>
<path d="M450.201 90.1298C449.382 90.8078 448.572 91.4858 447.75 92.1638C447.531 91.9435 447.315 91.7061 447.081 91.4858C447.861 90.7515 448.621 90.0368 449.376 89.3098C449.66 89.5693 449.92 89.8361 450.201 90.1298Z" fill="white"/>
<path d="M150.309 117.434C149.336 116.609 148.301 115.85 147.212 115.165C141.106 111.742 133.887 110.524 126.898 111.738C89.6599 117.857 69.9158 158.834 73.913 192.233C74.7322 199.087 77.2002 190.134 77.9336 181.01C78.4834 170.488 81.1005 160.153 85.6523 150.529C91.847 138.202 99.7348 127.197 113.149 120.77C125.013 115.081 137.163 112.281 150.309 117.434ZM179.247 214.825C178.779 208.873 176.386 210.003 175.79 211.476C174.893 213.716 174.212 216.015 173.411 218.283C168.644 231.806 156.746 251.981 144.122 261.833C136.178 268.032 128.074 272.056 126.279 274.496C127.041 274.894 127.434 275.797 130.701 274.806C139.889 271.92 148.085 266.763 154.429 259.875C162.977 250.66 169.918 240.226 174.995 228.965C177.495 224.602 178.946 219.774 179.247 214.825ZM137.496 284.175C137.545 284.317 137.571 284.452 137.621 284.609C142.247 284.711 146.803 283.526 150.718 281.203C163.379 274.141 173.916 264.152 181.33 252.185C181.817 251.17 181.94 250.029 181.681 248.94C181.572 248.571 181.371 248.23 181.095 247.949C180.819 247.667 180.475 247.451 180.092 247.318C175.562 246.339 176.636 257.762 147.251 277.915C144.076 280.107 140.747 282.094 137.496 284.175ZM174.493 159.438C172.547 159.896 174.753 157.365 170.984 185.604C170.204 191.342 168.719 196.984 167.718 202.703C167.138 206.016 165.541 209.183 166.158 212.698C166.444 214.32 167.078 214.275 168.251 213.595C169.204 212.951 170.011 212.133 170.624 211.191C171.238 210.248 171.646 209.2 171.824 208.109C177.052 188.794 176.529 181.989 175.741 163.582C175.504 162.159 175.085 160.767 174.493 159.438ZM128.087 253.205C128.087 252.985 128.087 252.746 128.105 252.526C123.048 251.021 118.097 249.213 113.281 247.119C104.788 243.104 97.931 236.577 93.7637 228.537C92.6948 226.393 92.1409 224.016 91.1084 221.838C90.0006 219.505 88.4532 219.25 87.5586 222.083C87.0599 224.186 87.3741 226.387 88.4454 228.292C92.3154 236.938 99.0462 244.179 107.638 248.938C116.054 253.786 122.301 254.294 128.087 253.205ZM92.4582 280.991C91.3709 279.72 90.1414 278.563 88.7913 277.539C82.5591 274.082 75.5475 272.056 68.3269 271.628C66.0691 271.463 63.8184 272.024 61.9449 273.221C58.8241 275.008 61.1647 276.756 63.0346 276.625C77 275.642 90.3829 284.323 92.4686 280.991H92.4582Z" fill="white"/>
<path d="M174.441 139.045C178.844 150.201 177.84 156.927 178.696 158.935C182.794 168.556 183.431 184.728 183.007 194.157C182.467 205.963 187.689 201.796 189.202 219.958C189.789 227.06 189.04 234.203 186.992 241.063C186.494 244.029 186.407 247.043 186.732 250.03C186.732 251.223 188.783 252.316 194.721 258.337C196.879 260.54 198.034 262.009 201.602 265.878L202.005 271.035C201.497 271.763 201.033 272.518 200.614 273.295C198.466 278.396 195.3 283.061 191.288 287.039C186.184 291.673 180.452 295.655 174.241 298.877C157.5 307.818 143.402 303.964 138.989 304.789C130.849 306.302 119.118 311.624 103.605 307.12C87.1895 302.353 81.6788 291.536 76.1576 287.416C70.7951 283.416 64.2675 282.58 57.6177 282.498C54.151 281.764 50.661 281.011 47.1943 280.255C52.38 273.197 57.4382 276.597 61.2534 266.629C66.9748 251.698 59.9895 246.958 56.9831 186.008C56.1065 176.581 56.6362 167.085 58.5565 157.796C63.1649 139.402 73.0577 124.349 90.5574 114.372C119.32 97.9748 162.361 108.434 174.441 139.045ZM161.581 181.458C160.392 169.873 160.088 161.284 154.58 154.979C149.309 148.631 143.33 142.835 136.745 137.689C134.454 135.975 129.983 137.708 127.401 138.981C116.931 143.753 107.992 151.052 101.496 160.134C98.4193 163.969 96.3525 168.436 95.4648 173.168C94.8452 177.788 94.6269 182.447 94.812 187.1C96.1773 207.309 107.204 218.112 124.756 228.584C126.014 229.304 127.512 229.557 128.958 229.294C131.778 228.733 134.478 227.731 136.948 226.332C154.221 215.295 161.422 201.223 161.581 181.458ZM150.31 117.434C149.336 116.609 148.301 115.851 147.212 115.165C141.106 111.743 133.887 110.525 126.899 111.738C89.6602 117.857 69.9161 158.834 73.9133 192.234C74.7325 199.087 77.2005 190.135 77.9339 181.01C78.4837 170.488 81.1008 160.154 85.6526 150.529C91.8473 138.203 99.735 127.198 113.149 120.77C125.013 115.082 137.163 112.282 150.31 117.434ZM179.247 214.826C178.779 208.876 176.386 210.004 175.791 211.476C174.893 213.716 174.212 216.015 173.411 218.283C168.644 231.807 156.746 251.982 144.123 261.834C136.178 268.032 128.074 272.057 126.28 274.498C127.042 274.894 127.434 275.798 130.701 274.806C139.889 271.92 148.085 266.764 154.429 259.875C162.977 250.66 169.919 240.227 174.995 228.965C177.495 224.602 178.946 219.774 179.247 214.826ZM137.496 284.175C137.546 284.318 137.572 284.452 137.621 284.609C142.248 284.711 146.803 283.526 150.718 281.205C163.379 274.141 173.916 264.153 181.33 252.188C181.817 251.17 181.94 250.03 181.681 248.94C181.572 248.571 181.371 248.231 181.095 247.949C180.819 247.668 180.475 247.451 180.092 247.319C175.562 246.34 176.636 257.762 147.251 277.915C144.076 280.108 140.747 282.094 137.496 284.175ZM174.493 159.439C172.548 159.897 174.753 157.366 170.985 185.605C170.205 191.342 168.72 196.984 167.718 202.704C167.138 206.016 165.542 209.184 166.158 212.698C166.444 214.322 167.079 214.275 168.251 213.596C169.204 212.951 170.011 212.133 170.625 211.191C171.238 210.249 171.646 209.2 171.825 208.109C177.052 188.795 176.529 181.989 175.741 163.583C175.504 162.159 175.085 160.768 174.493 159.439ZM128.087 253.206C128.087 252.985 128.087 252.747 128.105 252.526C123.048 251.021 118.097 249.214 113.282 247.121C104.788 243.105 97.931 236.578 93.764 228.537C92.6951 226.393 92.1412 224.017 91.1087 221.838C90.0008 219.505 88.4535 219.25 87.5588 222.083C87.06 224.186 87.3744 226.387 88.4457 228.292C92.3154 236.939 99.0465 244.18 107.638 248.938C116.054 253.787 122.301 254.295 128.087 253.206ZM92.4584 280.991C91.3709 279.72 90.1417 278.564 88.7915 277.54C82.5593 274.082 75.5478 272.057 68.3271 271.628C66.0693 271.463 63.8185 272.024 61.9452 273.221C58.8244 275.008 61.165 276.756 63.0348 276.628C77.0002 275.643 90.3831 284.326 92.4688 280.991H92.4584Z" fill="#A66DFF"/>
</svg>
