<svg width="198" height="57" viewBox="0 0 198 57" fill="none" xmlns="http://www.w3.org/2000/svg">
<rect width="197.94" height="57" rx="5" fill="black"/>
<path d="M99.9023 30.9953C96.4538 30.9953 93.643 33.5446 93.643 37.0558C93.643 40.5457 96.4538 43.1164 99.9023 43.1164C103.352 43.1164 106.163 40.5457 106.163 37.0558C106.162 33.5446 103.351 30.9953 99.9023 30.9953ZM99.9023 40.7309C98.0124 40.7309 96.3834 39.2161 96.3834 37.0573C96.3834 34.8756 98.0138 33.3836 99.9023 33.3836C101.792 33.3836 103.421 34.8756 103.421 37.0573C103.421 39.2147 101.792 40.7309 99.9023 40.7309ZM86.2459 30.9953C82.7974 30.9953 79.9867 33.5446 79.9867 37.0558C79.9867 40.5457 82.7974 43.1164 86.2459 43.1164C89.696 43.1164 92.5067 40.5457 92.5067 37.0558C92.5067 33.5446 89.696 30.9953 86.2459 30.9953ZM86.2459 40.7309C84.356 40.7309 82.727 39.2161 82.727 37.0573C82.727 34.8756 84.3575 33.3836 86.2459 33.3836C88.1359 33.3836 89.7649 34.8756 89.7649 37.0573C89.7663 39.2147 88.1359 40.7309 86.2459 40.7309ZM70.0032 32.8564V35.4271H76.3343C76.1452 36.8734 75.6496 37.9294 74.893 38.6632C73.9722 39.5581 72.5309 40.5457 70.0032 40.5457C66.106 40.5457 63.0592 37.4919 63.0592 33.7042C63.0592 29.9166 66.106 26.8628 70.0032 26.8628C72.1057 26.8628 73.6409 27.6665 74.7743 28.6996L76.6407 26.8856C75.0572 25.4164 72.9561 24.2921 70.0032 24.2921C64.6647 24.2921 60.1766 28.5158 60.1766 33.7042C60.1766 38.8927 64.6647 43.1164 70.0032 43.1164C72.8843 43.1164 75.0587 42.1972 76.758 40.4758C78.5058 38.7772 79.0497 36.3889 79.0497 34.4609C79.0497 33.8653 79.0028 33.3138 78.9075 32.8549H70.0032V32.8564ZM136.435 34.8528C135.916 33.499 134.332 30.9953 131.096 30.9953C127.884 30.9953 125.214 33.452 125.214 37.0558C125.214 40.453 127.86 43.1164 131.403 43.1164C134.26 43.1164 135.914 41.4178 136.6 40.4302L134.474 39.0523C133.766 40.0626 132.797 40.7281 131.403 40.7281C130.01 40.7281 129.017 40.1082 128.379 38.8912L136.718 35.5396L136.435 34.8528ZM127.931 36.8734C127.86 34.5307 129.797 33.338 131.191 33.338C132.278 33.338 133.199 33.8667 133.507 34.6234L127.931 36.8734ZM121.152 42.7501H123.891V24.9362H121.152V42.7501ZM116.663 32.3505H116.569C115.954 31.638 114.773 30.9953 113.286 30.9953C110.167 30.9953 107.31 33.6586 107.31 37.0801C107.31 40.4773 110.167 43.1178 113.286 43.1178C114.774 43.1178 115.954 42.4751 116.569 41.7412H116.663V42.6133C116.663 44.9318 115.387 46.1716 113.333 46.1716C111.656 46.1716 110.616 45.0016 110.191 44.0141L107.805 44.9788C108.49 46.5848 110.308 48.5599 113.333 48.5599C116.545 48.5599 119.262 46.723 119.262 42.2457V31.3644H116.664V32.3505H116.663ZM113.522 40.7309C111.632 40.7309 110.05 39.1919 110.05 37.0801C110.05 34.944 111.632 33.3836 113.522 33.3836C115.387 33.3836 116.852 34.944 116.852 37.0801C116.852 39.1919 115.387 40.7309 113.522 40.7309ZM149.27 24.9362H142.714V42.7501H145.449V36.0013H149.268C152.301 36.0013 155.283 33.8681 155.283 30.4695C155.283 27.0709 152.302 24.9362 149.27 24.9362ZM149.34 33.5218H145.449V27.4157H149.34C151.386 27.4157 152.547 29.0616 152.547 30.4695C152.547 31.8489 151.386 33.5218 149.34 33.5218ZM166.249 30.964C164.268 30.964 162.217 31.8118 161.368 33.6914L163.796 34.6761C164.315 33.6914 165.282 33.3694 166.296 33.3694C167.711 33.3694 169.149 34.1944 169.172 35.6608V35.8446C168.677 35.5696 167.615 35.1577 166.319 35.1577C163.702 35.1577 161.036 36.5557 161.036 39.1677C161.036 41.5517 163.183 43.0864 165.587 43.0864C167.426 43.0864 168.441 42.2842 169.077 41.3437H169.171V42.7188H171.813V35.8888C171.814 32.7281 169.384 30.964 166.249 30.964ZM165.917 40.7266C165.023 40.7266 163.772 40.2906 163.772 39.2133C163.772 37.8382 165.329 37.3109 166.674 37.3109C167.875 37.3109 168.442 37.5631 169.172 37.9066C168.96 39.5581 167.498 40.7266 165.917 40.7266ZM181.434 31.353L178.298 39.0765H178.204L174.949 31.353H172.002L176.883 42.1474L174.1 48.1523H176.954L184.477 31.353H181.434ZM156.793 42.7501H159.528V24.9362H156.793V42.7501Z" fill="white"/>
<path d="M69.5252 14.5962C69.5252 15.7903 69.1616 16.7408 68.4329 17.4505C67.606 18.2941 66.5268 18.7159 65.2014 18.7159C63.9316 18.7159 62.851 18.2883 61.964 17.4333C61.0754 16.5769 60.6312 15.5167 60.6312 14.2513C60.6312 12.9845 61.0754 11.9243 61.964 11.0693C62.851 10.2129 63.9316 9.78538 65.2014 9.78538C65.8318 9.78538 66.4345 9.90508 67.0063 10.1431C67.5796 10.3825 68.0385 10.7002 68.3816 11.0978L67.6089 11.8502C67.0268 11.1733 66.2248 10.8356 65.1999 10.8356C64.2732 10.8356 63.4727 11.152 62.7968 11.7847C62.1208 12.4174 61.7836 13.2396 61.7836 14.2499C61.7836 15.2602 62.1208 16.0824 62.7968 16.7151C63.4727 17.3478 64.2732 17.6642 65.1999 17.6642C66.1823 17.6642 67.0019 17.3464 67.6573 16.7095C68.0825 16.2948 68.3288 15.7177 68.3948 14.9781H65.1999V13.9507H69.4622C69.5062 14.1744 69.5252 14.3896 69.5252 14.5962Z" fill="white"/>
<path d="M76.2847 11.0252H72.2789V13.7356H75.8917V14.763H72.2789V17.4733H76.2847V18.525H71.1485V9.97498H76.2847V11.0252Z" fill="white"/>
<path d="M81.0512 18.525H79.9207V11.0252H77.4633V9.97498H83.5086V11.0252H81.0512V18.525Z" fill="white"/>
<path d="M87.8822 18.525V9.97498H89.0127V18.525H87.8822Z" fill="white"/>
<path d="M94.0259 18.525H92.8955V11.0252H90.4381V9.97498H96.4833V11.0252H94.0259V18.525Z" fill="white"/>
<path d="M107.927 17.4206C107.062 18.2841 105.987 18.7159 104.701 18.7159C103.415 18.7159 102.341 18.2841 101.477 17.4206C100.612 16.557 100.181 15.4997 100.181 14.25C100.181 13.0002 100.612 11.9429 101.477 11.0793C102.341 10.2158 103.415 9.78259 104.701 9.78259C105.98 9.78259 107.053 10.2172 107.921 11.085C108.789 11.9529 109.223 13.0074 109.223 14.25C109.223 15.4997 108.79 16.557 107.927 17.4206ZM102.311 16.7038C102.962 17.3451 103.758 17.6643 104.701 17.6643C105.644 17.6643 106.442 17.3436 107.091 16.7038C107.742 16.0626 108.069 15.2446 108.069 14.25C108.069 13.2553 107.742 12.4374 107.091 11.7961C106.442 11.1549 105.644 10.8357 104.701 10.8357C103.758 10.8357 102.962 11.1563 102.311 11.7961C101.662 12.4374 101.335 13.2553 101.335 14.25C101.335 15.2446 101.662 16.0626 102.311 16.7038Z" fill="white"/>
<path d="M110.809 18.525V9.97498H112.185L116.46 16.6255H116.509L116.46 14.9782V9.97498H117.591V18.525H116.41L111.937 11.551H111.889L111.937 13.1983V18.525H110.809Z" fill="white"/>
<path d="M69.5252 14.5962C69.5252 15.7903 69.1616 16.7408 68.4329 17.4505C67.606 18.2941 66.5268 18.7159 65.2014 18.7159C63.9316 18.7159 62.851 18.2883 61.964 17.4333C61.0754 16.5769 60.6312 15.5167 60.6312 14.2513C60.6312 12.9845 61.0754 11.9243 61.964 11.0693C62.851 10.2129 63.9316 9.78538 65.2014 9.78538C65.8318 9.78538 66.4345 9.90508 67.0063 10.1431C67.5796 10.3825 68.0385 10.7002 68.3816 11.0978L67.6089 11.8502C67.0268 11.1733 66.2248 10.8356 65.1999 10.8356C64.2732 10.8356 63.4727 11.152 62.7968 11.7847C62.1208 12.4174 61.7836 13.2396 61.7836 14.2499C61.7836 15.2602 62.1208 16.0824 62.7968 16.7151C63.4727 17.3478 64.2732 17.6642 65.1999 17.6642C66.1823 17.6642 67.0019 17.3464 67.6573 16.7095C68.0825 16.2948 68.3288 15.7177 68.3948 14.9781H65.1999V13.9507H69.4622C69.5062 14.1744 69.5252 14.3896 69.5252 14.5962Z" stroke="white" stroke-width="0.2" stroke-miterlimit="10"/>
<path d="M76.2847 11.0252H72.2789V13.7356H75.8917V14.763H72.2789V17.4733H76.2847V18.525H71.1485V9.97498H76.2847V11.0252Z" stroke="white" stroke-width="0.2" stroke-miterlimit="10"/>
<path d="M81.0512 18.525H79.9207V11.0252H77.4633V9.97498H83.5086V11.0252H81.0512V18.525Z" stroke="white" stroke-width="0.2" stroke-miterlimit="10"/>
<path d="M87.8822 18.525V9.97498H89.0127V18.525H87.8822Z" stroke="white" stroke-width="0.2" stroke-miterlimit="10"/>
<path d="M94.0259 18.525H92.8955V11.0252H90.4381V9.97498H96.4833V11.0252H94.0259V18.525Z" stroke="white" stroke-width="0.2" stroke-miterlimit="10"/>
<path d="M107.927 17.4206C107.062 18.2841 105.987 18.7159 104.701 18.7159C103.415 18.7159 102.341 18.2841 101.477 17.4206C100.612 16.557 100.181 15.4997 100.181 14.25C100.181 13.0002 100.612 11.9429 101.477 11.0793C102.341 10.2158 103.415 9.78259 104.701 9.78259C105.98 9.78259 107.053 10.2172 107.921 11.085C108.789 11.9529 109.223 13.0074 109.223 14.25C109.223 15.4997 108.79 16.557 107.927 17.4206ZM102.311 16.7038C102.962 17.3451 103.758 17.6643 104.701 17.6643C105.644 17.6643 106.442 17.3436 107.091 16.7038C107.742 16.0626 108.069 15.2446 108.069 14.25C108.069 13.2553 107.742 12.4374 107.091 11.7961C106.442 11.1549 105.644 10.8357 104.701 10.8357C103.758 10.8357 102.962 11.1563 102.311 11.7961C101.662 12.4374 101.335 13.2553 101.335 14.25C101.335 15.2446 101.662 16.0626 102.311 16.7038Z" stroke="white" stroke-width="0.2" stroke-miterlimit="10"/>
<path d="M110.809 18.525V9.97498H112.185L116.46 16.6255H116.509L116.46 14.9782V9.97498H117.591V18.525H116.41L111.937 11.551H111.889L111.937 13.1983V18.525H110.809Z" stroke="white" stroke-width="0.2" stroke-miterlimit="10"/>
<g filter="url(#filter0_ii_2_299)">
<path d="M15.3015 10.7417C14.8748 11.1806 14.6226 11.8617 14.6226 12.7438V44.2591C14.6226 45.1426 14.8748 45.8223 15.3015 46.2612L15.41 46.3638L33.575 28.7095V28.5014V28.2934L15.41 10.6376L15.3015 10.7417Z" fill="url(#paint0_linear_2_299)"/>
<path d="M39.629 34.5962L33.5749 28.7096V28.5015V28.2935L39.6304 22.4082L39.7668 22.4837L46.941 26.4452C48.9893 27.5767 48.9893 29.4278 46.941 30.5606L39.7668 34.5221L39.629 34.5962Z" fill="url(#paint1_linear_2_299)"/>
<g filter="url(#filter1_i_2_299)">
<path d="M39.7668 34.5207L33.5735 28.5015L15.3015 46.2612C15.9759 46.9566 17.0917 47.0421 18.3483 46.3496L39.7668 34.5207Z" fill="url(#paint2_linear_2_299)"/>
</g>
<path d="M39.7668 22.4823L18.3483 10.6547C17.0917 9.96077 15.9759 10.0477 15.3015 10.7431L33.5749 28.5029L39.7668 22.4823Z" fill="url(#paint3_linear_2_299)"/>
</g>
<defs>
<filter id="filter0_ii_2_299" x="14.6226" y="10.1758" width="33.8546" height="36.652" filterUnits="userSpaceOnUse" color-interpolation-filters="sRGB">
<feFlood flood-opacity="0" result="BackgroundImageFix"/>
<feBlend mode="normal" in="SourceGraphic" in2="BackgroundImageFix" result="shape"/>
<feColorMatrix in="SourceAlpha" type="matrix" values="0 0 0 0 0 0 0 0 0 0 0 0 0 0 0 0 0 0 127 0" result="hardAlpha"/>
<feOffset dy="-0.15"/>
<feComposite in2="hardAlpha" operator="arithmetic" k2="-1" k3="1"/>
<feColorMatrix type="matrix" values="0 0 0 0 0 0 0 0 0 0 0 0 0 0 0 0 0 0 0.12 0"/>
<feBlend mode="normal" in2="shape" result="effect1_innerShadow_2_299"/>
<feColorMatrix in="SourceAlpha" type="matrix" values="0 0 0 0 0 0 0 0 0 0 0 0 0 0 0 0 0 0 127 0" result="hardAlpha"/>
<feOffset dy="0.15"/>
<feComposite in2="hardAlpha" operator="arithmetic" k2="-1" k3="1"/>
<feColorMatrix type="matrix" values="0 0 0 0 1 0 0 0 0 1 0 0 0 0 1 0 0 0 0.25 0"/>
<feBlend mode="normal" in2="effect1_innerShadow_2_299" result="effect2_innerShadow_2_299"/>
</filter>
<filter id="filter1_i_2_299" x="15.3015" y="28.5015" width="24.4653" height="18.3264" filterUnits="userSpaceOnUse" color-interpolation-filters="sRGB">
<feFlood flood-opacity="0" result="BackgroundImageFix"/>
<feBlend mode="normal" in="SourceGraphic" in2="BackgroundImageFix" result="shape"/>
<feColorMatrix in="SourceAlpha" type="matrix" values="0 0 0 0 0 0 0 0 0 0 0 0 0 0 0 0 0 0 127 0" result="hardAlpha"/>
<feOffset dy="-0.15"/>
<feComposite in2="hardAlpha" operator="arithmetic" k2="-1" k3="1"/>
<feColorMatrix type="matrix" values="0 0 0 0 0 0 0 0 0 0 0 0 0 0 0 0 0 0 0.08 0"/>
<feBlend mode="normal" in2="shape" result="effect1_innerShadow_2_299"/>
</filter>
<linearGradient id="paint0_linear_2_299" x1="31.9648" y1="12.4103" x2="8.06014" y2="37.0064" gradientUnits="userSpaceOnUse">
<stop stop-color="#00A0FF"/>
<stop offset="0.0066" stop-color="#00A1FF"/>
<stop offset="0.2601" stop-color="#00BEFF"/>
<stop offset="0.5122" stop-color="#00D2FF"/>
<stop offset="0.7604" stop-color="#00DFFF"/>
<stop offset="1" stop-color="#00E3FF"/>
</linearGradient>
<linearGradient id="paint1_linear_2_299" x1="49.6073" y1="28.5015" x2="14.1308" y2="28.5015" gradientUnits="userSpaceOnUse">
<stop stop-color="#FFE000"/>
<stop offset="0.4087" stop-color="#FFBD00"/>
<stop offset="0.7754" stop-color="#FFA500"/>
<stop offset="1" stop-color="#FF9C00"/>
</linearGradient>
<linearGradient id="paint2_linear_2_299" x1="36.4034" y1="31.7703" x2="3.98574" y2="65.1257" gradientUnits="userSpaceOnUse">
<stop stop-color="#FF3A44"/>
<stop offset="1" stop-color="#C31162"/>
</linearGradient>
<linearGradient id="paint3_linear_2_299" x1="10.6996" y1="0.251965" x2="25.175" y2="15.1461" gradientUnits="userSpaceOnUse">
<stop stop-color="#32A071"/>
<stop offset="0.0685" stop-color="#2DA771"/>
<stop offset="0.4762" stop-color="#15CF74"/>
<stop offset="0.8009" stop-color="#06E775"/>
<stop offset="1" stop-color="#00F076"/>
</linearGradient>
</defs>
</svg>
