<svg width="177" height="57" viewBox="0 0 177 57" fill="none" xmlns="http://www.w3.org/2000/svg">
<rect x="0.331909" width="175.946" height="57" rx="7" fill="#0C0D10"/>
<path d="M119.867 27.3613V30.626H117.761V32.7669H119.867V40.0415C119.867 42.5255 121.023 43.5191 123.932 43.5191C124.443 43.5191 124.93 43.46 125.356 43.389V41.2717C124.991 41.3072 124.759 41.3309 124.358 41.3309C123.055 41.3309 122.483 40.7394 122.483 39.391V32.7669H125.356V30.626H122.483V27.3613H119.867Z" fill="white"/>
<path d="M132.766 43.6966C136.636 43.6966 139.009 41.1771 139.009 37.0016C139.009 32.8497 136.624 30.3184 132.766 30.3184C128.895 30.3184 126.51 32.8497 126.51 37.0016C126.51 41.1771 128.883 43.6966 132.766 43.6966ZM132.766 41.4373C130.49 41.4373 129.212 39.8168 129.212 37.0016C129.212 34.21 130.49 32.5777 132.766 32.5777C135.03 32.5777 136.32 34.21 136.32 37.0016C136.32 39.805 135.03 41.4373 132.766 41.4373Z" fill="white"/>
<path d="M141.04 43.4482H143.657V35.8424C143.657 34.0326 145.056 32.8143 147.04 32.8143C147.503 32.8143 148.282 32.8971 148.501 32.968V30.4604C148.221 30.3894 147.722 30.3539 147.332 30.3539C145.604 30.3539 144.131 31.2765 143.754 32.5422H143.559V30.5668H141.04V43.4482Z" fill="white"/>
<path d="M154.998 32.4831C156.933 32.4831 158.199 33.796 158.26 35.8187H151.566C151.712 33.8079 153.063 32.4831 154.998 32.4831ZM158.247 39.9706C157.761 40.976 156.677 41.5319 155.095 41.5319C153.002 41.5319 151.651 40.1007 151.566 37.8414V37.6995H160.925V36.8123C160.925 32.7669 158.698 30.3184 155.01 30.3184C151.274 30.3184 148.9 32.9325 148.9 37.0489C148.9 41.1653 151.225 43.6966 155.022 43.6966C158.053 43.6966 160.17 42.2771 160.767 39.9706H158.247Z" fill="white"/>
<path d="M102.707 38.6913C102.909 41.8544 105.621 43.8773 109.657 43.8773C113.972 43.8773 116.671 41.7563 116.671 38.3725C116.671 35.7121 115.132 34.2409 111.398 33.395L109.392 32.9168C107.021 32.3774 106.062 31.654 106.062 30.3913C106.062 28.7975 107.551 27.7554 109.784 27.7554C111.903 27.7554 113.366 28.7729 113.631 30.4035H116.381C116.217 27.4243 113.517 25.3279 109.821 25.3279C105.848 25.3279 103.199 27.4243 103.199 30.5752C103.199 33.1743 104.7 34.719 107.992 35.4669L110.339 36.0186C112.748 36.5703 113.808 37.3795 113.808 38.7281C113.808 40.2974 112.142 41.4375 109.872 41.4375C107.437 41.4375 105.747 40.3709 105.507 38.6913H102.707Z" fill="white"/>
<path d="M75.6002 30.3539C73.7989 30.3539 72.2411 31.2292 71.4378 32.696H71.2431V30.5668H68.7237V47.7301H71.3404V41.4965H71.5473C72.2411 42.8567 73.7381 43.6611 75.6245 43.6611C78.9715 43.6611 81.1014 41.0943 81.1014 37.0016C81.1014 32.9089 78.9715 30.3539 75.6002 30.3539ZM74.8578 41.3782C72.6671 41.3782 71.2918 39.6985 71.2918 37.0134C71.2918 34.3165 72.6671 32.6368 74.87 32.6368C77.085 32.6368 78.4117 34.281 78.4117 37.0016C78.4117 39.734 77.085 41.3782 74.8578 41.3782Z" fill="white"/>
<path d="M90.2577 30.3539C88.4564 30.3539 86.8986 31.2292 86.0953 32.696H85.9006V30.5668H83.3812V47.7301H85.9979V41.4965H86.2048C86.8986 42.8567 88.3956 43.6611 90.282 43.6611C93.629 43.6611 95.7589 41.0943 95.7589 37.0016C95.7589 32.9089 93.629 30.3539 90.2577 30.3539ZM89.5153 41.3782C87.3245 41.3782 85.9492 39.6985 85.9492 37.0134C85.9492 34.3165 87.3245 32.6368 89.5275 32.6368C91.7425 32.6368 93.0691 34.281 93.0691 37.0016C93.0691 39.734 91.7425 41.3782 89.5153 41.3782Z" fill="white"/>
<path d="M64.0289 43.4482H67.0312L60.4589 25.757H57.4188L50.8466 43.4482H53.748L55.4257 38.7526H62.3638L64.0289 43.4482ZM58.7938 28.9691H59.0083L61.6447 36.4477H56.1447L58.7938 28.9691Z" fill="white"/>
<path d="M52.6042 12.4131V20.9474H55.7747C58.3914 20.9474 59.9067 19.3801 59.9067 16.6536C59.9067 13.9685 58.3793 12.4131 55.7747 12.4131H52.6042ZM53.9674 13.6196H55.6226C57.4421 13.6196 58.5192 14.7433 58.5192 16.6714C58.5192 18.629 57.4604 19.7409 55.6226 19.7409H53.9674V13.6196Z" fill="white"/>
<path d="M64.5474 21.0716C66.4826 21.0716 67.6692 19.8119 67.6692 17.7241C67.6692 15.6482 66.4765 14.3825 64.5474 14.3825C62.6123 14.3825 61.4195 15.6482 61.4195 17.7241C61.4195 19.8119 62.6062 21.0716 64.5474 21.0716ZM64.5474 19.942C63.4095 19.942 62.7705 19.1317 62.7705 17.7241C62.7705 16.3284 63.4095 15.5122 64.5474 15.5122C65.6793 15.5122 66.3243 16.3284 66.3243 17.7241C66.3243 19.1258 65.6793 19.942 64.5474 19.942Z" fill="white"/>
<path d="M77.7746 14.5067H76.4662L75.2857 19.4215H75.1822L73.8191 14.5067H72.5655L71.2024 19.4215H71.105L69.9184 14.5067H68.5918L70.4174 20.9474H71.7622L73.1254 16.2042H73.2288L74.598 20.9474H75.9551L77.7746 14.5067Z" fill="white"/>
<path d="M79.2813 20.9474H80.5897V17.18C80.5897 16.1746 81.2043 15.5477 82.1719 15.5477C83.1395 15.5477 83.602 16.0622 83.602 17.0972V20.9474H84.9103V16.7778C84.9103 15.246 84.0949 14.3825 82.6161 14.3825C81.6181 14.3825 80.9609 14.8143 80.6384 15.5299H80.541V14.5067H79.2813V20.9474Z" fill="white"/>
<path d="M86.9708 20.9474H88.2792V11.9932H86.9708V20.9474Z" fill="white"/>
<path d="M93.1998 21.0716C95.135 21.0716 96.3216 19.8119 96.3216 17.7241C96.3216 15.6482 95.1289 14.3825 93.1998 14.3825C91.2647 14.3825 90.0719 15.6482 90.0719 17.7241C90.0719 19.8119 91.2586 21.0716 93.1998 21.0716ZM93.1998 19.942C92.0619 19.942 91.4229 19.1317 91.4229 17.7241C91.4229 16.3284 92.0619 15.5122 93.1998 15.5122C94.3317 15.5122 94.9768 16.3284 94.9768 17.7241C94.9768 19.1258 94.3317 19.942 93.1998 19.942Z" fill="white"/>
<path d="M100.22 19.9834C99.5079 19.9834 98.9907 19.6463 98.9907 19.0667C98.9907 18.4989 99.4045 18.1973 100.317 18.1381L101.936 18.0376V18.5758C101.936 19.3742 101.206 19.9834 100.22 19.9834ZM99.8852 21.0539C100.755 21.0539 101.48 20.6872 101.875 20.0425H101.979V20.9474H103.238V16.5472C103.238 15.1869 102.301 14.3825 100.64 14.3825C99.1367 14.3825 98.0657 15.0923 97.9318 16.1982H99.1976C99.3436 15.7428 99.8487 15.4826 100.579 15.4826C101.474 15.4826 101.936 15.867 101.936 16.5472V17.1031L100.141 17.2037C98.5647 17.2983 97.6762 17.9666 97.6762 19.1258C97.6762 20.3028 98.6073 21.0539 99.8852 21.0539Z" fill="white"/>
<path d="M107.678 21.0539C108.591 21.0539 109.364 20.634 109.759 19.9302H109.863V20.9474H111.116V11.9932H109.808V15.5299H109.711C109.352 14.8202 108.585 14.4003 107.678 14.4003C106.005 14.4003 104.928 15.6896 104.928 17.7241C104.928 19.7646 105.993 21.0539 107.678 21.0539ZM108.049 15.5417C109.145 15.5417 109.832 16.3875 109.832 17.73C109.832 19.0785 109.151 19.9124 108.049 19.9124C106.942 19.9124 106.279 19.0903 106.279 17.7241C106.279 16.3698 106.948 15.5417 108.049 15.5417Z" fill="white"/>
<path d="M119.601 21.0716C121.536 21.0716 122.722 19.8119 122.722 17.7241C122.722 15.6482 121.53 14.3825 119.601 14.3825C117.665 14.3825 116.473 15.6482 116.473 17.7241C116.473 19.8119 117.659 21.0716 119.601 21.0716ZM119.601 19.942C118.463 19.942 117.824 19.1317 117.824 17.7241C117.824 16.3284 118.463 15.5122 119.601 15.5122C120.733 15.5122 121.378 16.3284 121.378 17.7241C121.378 19.1258 120.733 19.942 119.601 19.942Z" fill="white"/>
<path d="M124.454 20.9474H125.763V17.18C125.763 16.1746 126.377 15.5477 127.345 15.5477C128.312 15.5477 128.775 16.0622 128.775 17.0972V20.9474H130.083V16.7778C130.083 15.246 129.268 14.3825 127.789 14.3825C126.791 14.3825 126.134 14.8143 125.811 15.5299H125.714V14.5067H124.454V20.9474Z" fill="white"/>
<path d="M136.109 12.904V14.5363H135.056V15.6068H136.109V19.2441C136.109 20.4861 136.687 20.9829 138.142 20.9829C138.397 20.9829 138.641 20.9533 138.854 20.9179V19.8592C138.671 19.8769 138.555 19.8888 138.355 19.8888C137.703 19.8888 137.417 19.593 137.417 18.9188V15.6068H138.854V14.5363H137.417V12.904H136.109Z" fill="white"/>
<path d="M140.61 20.9474H141.918V17.1859C141.918 16.2101 142.515 15.5536 143.586 15.5536C144.511 15.5536 145.003 16.074 145.003 17.1031V20.9474H146.312V16.7897C146.312 15.2579 145.442 14.3885 144.03 14.3885C143.032 14.3885 142.332 14.8202 142.009 15.5417H141.906V11.9932H140.61V20.9474Z" fill="white"/>
<path d="M151.032 15.4649C151.999 15.4649 152.632 16.1213 152.663 17.1327H149.316C149.389 16.1273 150.064 15.4649 151.032 15.4649ZM152.656 19.2086C152.413 19.7113 151.871 19.9893 151.08 19.9893C150.034 19.9893 149.358 19.2737 149.316 18.144V18.0731H153.995V17.6295C153.995 15.6068 152.882 14.3825 151.038 14.3825C149.17 14.3825 147.983 15.6896 147.983 17.7478C147.983 19.806 149.145 21.0716 151.044 21.0716C152.559 21.0716 153.618 20.3619 153.916 19.2086H152.656Z" fill="white"/>
<path d="M36.6487 28.9286C36.6804 26.5332 38.0041 24.2666 40.1039 23.012C38.7792 21.1733 36.5604 20.0075 34.252 19.9373C31.7899 19.6861 29.4029 21.3692 28.1483 21.3692C26.8693 21.3692 24.9376 19.9622 22.8574 20.0038C20.146 20.0889 17.6183 21.5872 16.2991 23.891C13.4635 28.6625 15.5786 35.675 18.295 39.5319C19.654 41.4206 21.2423 43.5302 23.3206 43.4554C25.3543 43.3734 26.1139 42.195 28.5688 42.195C31.0009 42.195 31.7135 43.4554 33.834 43.4078C36.0163 43.3734 37.3912 41.5108 38.7026 39.6043C39.6791 38.2586 40.4304 36.7713 40.9289 35.1975C38.3643 34.1433 36.6517 31.6349 36.6487 28.9286Z" fill="white"/>
<path d="M32.6435 17.4008C33.8333 16.0125 34.4195 14.2282 34.2776 12.4266C32.4597 12.6122 30.7805 13.4566 29.5746 14.7916C28.3953 16.0959 27.7816 17.8489 27.8976 19.5816C29.7162 19.5998 31.5039 18.7783 32.6435 17.4008Z" fill="white"/>
</svg>
